<svg width="96" height="40" xmlns="http://www.w3.org/2000/svg">
  <defs>
    <filter id="a">
      <feColorMatrix in="SourceGraphic" values="0 0 0 0 1.000000 0 0 0 0 1.000000 0 0 0 0 1.000000 0 0 0 1.000000 0"/>
    </filter>
  </defs>
  <g fill="none" fill-rule="evenodd">
    <g filter="url(#a)">
      <g fill="#CEF0FF">
        <path d="M17.9773 0c1.9934 0 3.7984.3598 5.417 1.083 1.6166.7196 3.006 1.6868 4.1643 2.8963 1.162 1.213 2.0502 2.631 2.672 4.2519.6219 1.6227.9328 3.3166.9328 5.0872 0 1.7688-.311 3.4645-.9327 5.0855-.6219 1.6227-1.5102 3.0388-2.672 4.25a12.5272 12.5272 0 01-1.756 1.5254c2.1878 1.1232 4.0709 2.6126 5.6542 4.4646 1.6274 1.913 2.8799 4.1468 3.7522 6.701.0533.155.5579 1.5925.7462 3.8298h-5.3174c-.6716-4.7684-4.8573-10.0605-9.0501-11.4303-.1617-.0588-.3287-.0944-.4922-.146-.1634-.0446-.3233-.1016-.4885-.1426a10.853 10.853 0 00-2.61-.317c-.819 0-1.6113.0926-2.3841.2796-4.7454 1.001-9.7999 6.5515-10.4057 11.7189L0 39.1747c.1848-2.2373.7337-3.6837.7853-3.8297.8705-2.5543 2.1213-4.788 3.7504-6.701 1.6292-1.9078 3.5817-3.4308 5.854-4.5672l-.2454.1274a12.2375 12.2375 0 01-1.775-1.5503c-1.1424-1.2112-2.0253-2.6273-2.6472-4.25-.62-1.621-.9291-3.3167-.9291-5.0855 0-1.7706.3091-3.4645.9291-5.0872.6219-1.621 1.512-3.0389 2.672-4.2519 1.1602-1.2095 2.5495-2.1767 4.1663-2.8963C14.177.3598 15.9839 0 17.9773 0zm0 4.6206c-1.0464 0-2.036.2297-2.9652.6875-.9327.4596-1.741 1.0812-2.425 1.8668-.6876.7873-1.2366 1.7118-1.6435 2.777-.4104 1.0651-.6129 2.2034-.6129 3.4146 0 1.245.1954 2.3922.588 3.4414.3927 1.0491.931 1.9576 1.6168 2.727.6876.7713 1.496 1.3752 2.4269 1.817.9327.4435 1.9347.6643 3.0149.6643 1.0784 0 2.084-.2208 3.015-.6644.9291-.4417 1.7392-1.0562 2.425-1.8418.6858-.7855 1.2259-1.7028 1.6167-2.7538.3927-1.0474.5881-2.1927.5881-3.4378 0-1.2112-.1954-2.3512-.588-3.4164-.391-1.0634-.931-1.9915-1.6168-2.7752-.6858-.7873-1.4959-1.4-2.425-1.8436-.931-.4418-1.9366-.6626-3.015-.6626zM89.2297.9C88.363.3024 87.4216 0 86.4254 0c-1.4487 0-2.5562.6745-3.474 1.828-.5126.6426-.9578 1.9502-1.06 3.8572l.031 6.3164-1.0874.6689-1.0838-.6689.031-6.3164c-.1021-1.907-.5491-3.2146-1.06-3.8572C77.8045.6745 76.697 0 75.2465 0c-.9944 0-1.9377.3025-2.8043.9-5.335 3.6842-7.7908 10.2674-6.2564 16.7718.8193 3.4682 2.8463 6.5381 5.6306 8.663l-.073 12.8527h4.8386l.0913-15.6765c-2.8372-1.2794-5.043-3.8853-5.7838-7.0172-1.1166-4.7345.8502-9.1083 4.2475-11.455.0584-.0375 0 9.9463 0 9.9463l5.698 3.1075 5.6999-3.1075s-.0566-9.9838 0-9.9462c3.399 2.3466 5.366 6.7204 4.2493 11.4549-.7408 3.1319-2.9484 5.7378-5.7838 7.0172l.0894 15.6765h4.8405l-.073-12.8527c2.7843-2.1249 4.8095-5.1948 5.6287-8.663 1.5363-6.5044-.9195-13.0876-6.2563-16.7719M48.7209 32.0754c-.0034-.0068-8.4795-11.6422-8.4795-17.9744 0-1.3148.2245-2.5518.6785-3.7076.4523-1.1557 1.06-2.1626 1.8211-3.0155.7612-.8545 1.6574-1.528 2.692-2.0289 1.0313-.4975 2.1284-.7462 3.2879-.7462s2.2566.2487 3.2895.7462c1.033.5009 1.9308 1.1744 2.692 2.029.7595.8528 1.3671 1.8597 1.8195 3.0154.4557 1.1558.6801 2.3928.6801 3.7076 0 6.3322-8.476 17.9676-8.4811 17.9744M60.981 8.7114c-.6211-1.7142-1.5123-3.2152-2.6735-4.4995-1.1595-1.2827-2.5502-2.3048-4.1688-3.068C52.5217.3807 50.7158 0 48.7209 0c-1.995 0-3.7992.3807-5.4178 1.144-1.6186.7631-3.0077 1.7852-4.1689 3.0679-1.1595 1.2843-2.0523 2.7853-2.6718 4.4995-.621 1.7176-.93 3.513-.93 5.3862 0 1.8699.3764 3.64.93 5.3846 3.0398 9.5744 12.2551 20.4027 12.2585 20.406.0034-.0033 9.2187-10.8316 12.2601-20.406.552-1.7447.93-3.5147.93-5.3846 0-1.8732-.3089-3.6686-.93-5.3862"/>
      </g>
    </g>
    <path d="M48.7209 18.0208c2.2852 0 4.1368-1.8563 4.1368-4.1459 0-2.2912-1.8516-4.1475-4.1368-4.1475-2.2853 0-4.1351 1.8563-4.1351 4.1475 0 2.2896 1.8498 4.1459 4.135 4.1459" fill="#00AFFF"/>
  </g>
</svg>
