<svg width="20" height="20" xmlns="http://www.w3.org/2000/svg">
  <path d="M10.000937 0C7.285076 0 6.94424.011875 5.877561.060417 4.812967.109167 4.086293.277708 3.450453.525c-.657716.255417-1.215638.597083-1.771477 1.153125-.556256.555833-.897926 1.11375-1.154179 1.77125-.24792.636042-.41667 1.362917-.464588 2.427083C.0125 6.943125 0 7.284167 0 10c0 2.715833.012083 3.055625.060417 4.122292.04896 1.064583.217503 1.79125.464588 2.427083.255628.657708.597298 1.215625 1.153346 1.771458.55563.55625 1.113553.89875 1.770852 1.154167.636256.247292 1.363139.415833 2.427525.464583C6.943406 19.988125 7.284034 20 9.999688 20c2.71607 0 3.055865-.011875 4.122542-.060417 1.064595-.04875 1.792102-.217291 2.42836-.464583.657506-.255417 1.214595-.597917 1.770226-1.154167.556256-.555833.897926-1.11375 1.154179-1.77125.245835-.636041.414587-1.362916.464588-2.427083C19.9875 13.055833 20 12.715833 20 10s-.0125-3.056667-.060417-4.123333c-.05-1.064584-.218753-1.79125-.464588-2.427084-.256253-.657708-.597923-1.215625-1.15418-1.771458-.556255-.55625-1.11251-.897917-1.77085-1.153125-.637508-.247292-1.364598-.415833-2.429193-.464583C13.054094.011875 12.714507 0 9.997812 0h.003125zm-.897092 1.802083c.266253-.000416.563339 0 .897092 0 2.670028 0 2.98649.009584 4.040876.0575.97501.044584 1.504182.2075 1.856686.344375.466672.18125.799383.397917 1.149179.747917.350003.35.566672.683333.74834 1.15.136877.352083.300004.88125.34438 1.85625.047916 1.054167.058333 1.370833.058333 4.039583s-.010416 2.985417-.058334 4.039584c-.044584.975-.207502 1.504166-.344378 1.85625-.181252.466666-.398338.798958-.748341 1.14875-.350004.35-.6823.566666-1.14918.747916-.352086.1375-.881675.3-1.856685.344584-1.054178.047916-1.370848.058333-4.040876.058333-2.670236 0-2.986697-.010417-4.040875-.058333-.97501-.045-1.504182-.207917-1.856894-.344792-.466672-.18125-.800009-.397917-1.150012-.747917-.350004-.35-.566673-.6825-.748341-1.149375-.136877-.352083-.300003-.88125-.344379-1.85625-.047917-1.054166-.0575-1.370833-.0575-4.04125 0-2.670416.009583-2.985416.0575-4.039583.044584-.975.207502-1.504167.344379-1.856667.181252-.466666.398337-.8.74834-1.15.350004-.35.683341-.566666 1.150013-.748333.352503-.1375.881884-.3 1.856894-.344792.92251-.041666 1.280013-.054166 3.143783-.05625v.0025zM15.33891 3.4625c-.662507 0-1.200013.536875-1.200013 1.199583 0 .6625.537506 1.2 1.200013 1.2s1.200012-.5375 1.200012-1.2-.537505-1.2-1.200012-1.2V3.4625zm-5.337973 1.402083c-2.83607 0-5.13547 2.299375-5.13547 5.135417 0 2.836042 2.2994 5.134375 5.13547 5.134375 2.836072 0 5.134637-2.298333 5.134637-5.134375 0-2.836042-2.298774-5.135417-5.134845-5.135417h.000208zm0 1.802084c1.840853 0 3.333369 1.492291 3.333369 3.333333 0 1.840833-1.492516 3.333333-3.333369 3.333333-1.84106 0-3.333368-1.4925-3.333368-3.333333 0-1.841042 1.492308-3.333333 3.333368-3.333333z" fill="#CEF0FF" fill-rule="evenodd"/>
</svg>
