<svg width="256" height="56" xmlns="http://www.w3.org/2000/svg"><defs><filter color-interpolation-filters="auto" id="a"><feColorMatrix in="SourceGraphic" values="0 0 0 0 1.000000 0 0 0 0 1.000000 0 0 0 0 1.000000 0 0 0 1.000000 0"/></filter></defs><g fill="none" fill-rule="evenodd"><g filter="url(#a)" transform="translate(0 10)"><g fill="#CEF0FF"><path d="M19.85 0a14.5 14.5 0 0110.58 4.4 13.9 13.9 0 012.95 4.69c.69 1.79 1.03 3.66 1.03 5.62 0 1.95-.34 3.82-1.03 5.61a13.86 13.86 0 01-4.89 6.38 20.37 20.37 0 016.24 4.93 22.53 22.53 0 014.15 7.4c.06.17.61 1.76.82 4.23h-5.87c-.74-5.27-5.36-11.11-10-12.63l-.54-.16-.54-.15a11.98 11.98 0 00-5.51-.05C12 31.38 6.42 37.51 5.75 43.21L0 43.26c.2-2.47.81-4.07.87-4.23A22.45 22.45 0 015 31.63c1.8-2.1 3.95-3.79 6.46-5.05l-.27.14a14.13 14.13 0 01-4.88-6.4 15.58 15.58 0 01-1.03-5.61c0-1.96.34-3.83 1.03-5.62a13.93 13.93 0 017.55-7.9A14.5 14.5 0 0119.85 0zm0 5.1c-1.16 0-2.25.26-3.27.76a8.5 8.5 0 00-2.68 2.06 10.4 10.4 0 00-2.5 6.84c0 1.37.22 2.64.66 3.8a9.45 9.45 0 001.78 3.01 8.34 8.34 0 002.68 2c1.03.5 2.14.74 3.33.74 1.2 0 2.3-.24 3.33-.73a8.2 8.2 0 002.68-2.04 9.73 9.73 0 001.78-3.04c.44-1.15.65-2.42.65-3.8 0-1.33-.21-2.59-.65-3.77a9.67 9.67 0 00-1.78-3.06 8.2 8.2 0 00-2.68-2.04 7.67 7.67 0 00-3.33-.73zM98.52 1c-.95-.67-2-1-3.1-1-1.6 0-2.81.74-3.83 2.02-.56.7-1.06 2.15-1.17 4.26l.04 6.97-1.2.74-1.2-.74.03-6.97c-.11-2.1-.6-3.55-1.17-4.26A4.74 4.74 0 0083.08 0c-1.1 0-2.13.33-3.1 1-5.88 4.06-8.6 11.33-6.9 18.51a17 17 0 006.22 9.57l-.08 14.19h5.34l.1-17.31a11.46 11.46 0 01-6.39-7.75 11.88 11.88 0 014.7-12.65c.06-.04 0 10.99 0 10.99l6.29 3.43 6.29-3.43s-.06-11.03 0-10.99a11.88 11.88 0 014.7 12.65 11.47 11.47 0 01-6.4 7.75l.1 17.31h5.35l-.08-14.2a17 17 0 006.21-9.56c1.7-7.18-1.01-14.45-6.9-18.52M53.8 35.42c0-.01-9.37-12.86-9.37-19.85a11.1 11.1 0 012.76-7.42 9.45 9.45 0 012.98-2.24 8.25 8.25 0 013.63-.83c1.28 0 2.49.28 3.63.83a9.47 9.47 0 012.97 2.24 11.06 11.06 0 012.76 7.42c0 7-9.36 19.84-9.36 19.85m13.53-25.8a14.42 14.42 0 00-7.56-8.36A13.84 13.84 0 0053.8 0 13.85 13.85 0 0043.2 4.65a14.88 14.88 0 00-2.95 4.97 17.35 17.35 0 00-1.03 5.95c0 2.06.42 4.02 1.03 5.94C43.62 32.08 53.8 44.04 53.8 44.04c0 0 10.17-11.96 13.53-22.53.61-1.92 1.03-3.88 1.03-5.94 0-2.07-.34-4.05-1.03-5.95"/></g></g><path d="M53.8 29.9a4.57 4.57 0 10-.01-9.15 4.57 4.57 0 000 9.15M213.18 44.27a3.1 3.1 0 011.64-.12c.44.1.83.35 1.1.71.36.54.62 1.13.78 1.75l.9 2.95 1.26-.4.55 1.79-3.67 1.12-1.39-4.53c-.25-.81-.71-1.11-1.4-.9-.6.21-1.15.58-1.57 1.06l1.05 3.44 1.25-.39.54 1.79-3.66 1.12-1.37-4.46c-.27-.85-.73-1.18-1.38-.98-.6.22-1.16.6-1.6 1.07l1.06 3.44 1.25-.38.54 1.78-4.91 1.5-.55-1.78 1.25-.38-1.28-4.18-1.25.39-.55-1.78 3.67-1.13.2.63a4.9 4.9 0 012.22-1.5 2.82 2.82 0 012.59.36 5.42 5.42 0 012.73-2zm5.57-.6a4.42 4.42 0 015.66-1.74 4.08 4.08 0 012.05 2.62 4.1 4.1 0 01-.23 3.31 4.42 4.42 0 01-5.66 1.75 4.03 4.03 0 01-2.07-2.62 4.08 4.08 0 01.25-3.32zm4.34.17a1.35 1.35 0 00-1.27-.22c-1 .31-1.27 1.2-.82 2.67.14.53.43 1 .83 1.37.36.32.86.41 1.3.25.43-.12.78-.45.93-.87.17-.43.14-1.03-.09-1.78a2.69 2.69 0 00-.88-1.42zm5.05-7.29l.92 2.99 1.39-.43.54 1.78-1.39.42 1.03 3.36c.05.22.15.42.3.58.1.08.3.08.57 0 .26-.09.5-.21.71-.38l.53 1.7c-.5.44-1.08.76-1.7.96-1.33.4-2.2-.07-2.61-1.41l-1.24-4.05-.97.3-.54-1.79.96-.3-.37-1.22 1.87-2.5zm4.26 2.93a4.43 4.43 0 015.65-1.73c1 .5 1.68 1.38 2.06 2.62a4.1 4.1 0 01-.23 3.3 4.43 4.43 0 01-5.66 1.76 4.07 4.07 0 01-2.06-2.62 4.04 4.04 0 01.24-3.33zm13.63-5.26l.71 2.33c-.5.13-1 .36-1.43.66-.37.3-.6.73-.67 1.2-.1.6-.06 1.21.13 1.78l.3.95 1.5-.46.55 1.78-5.33 1.64-.54-1.79 1.4-.41-1.28-4.18-1.31.4-.55-1.77 3.52-1.09.61 1.97a2.87 2.87 0 012.39-3zm-9.3 5.44a1.36 1.36 0 00-1.26-.22c-1 .31-1.27 1.2-.82 2.67.14.52.43 1 .83 1.37.36.32.86.41 1.3.25.43-.12.78-.44.93-.86.17-.44.14-1.04-.1-1.79a2.69 2.69 0 00-.87-1.42zM253 32.19l.7 2.24-1.73.53c-.32-.49-.96-.59-1.9-.3-.7.21-1 .52-.88.92.05.14.17.25.32.27.4.03.8 0 1.19-.06.74-.11 1.5-.16 2.24-.15.5.02.97.2 1.37.5.4.3.7.74.84 1.23.23.7.15 1.47-.23 2.1-.38.65-1.05 1.12-2.03 1.42-.9.26-1.58.27-2.02 0l.12.38-1.77.54-.82-2.66 1.77-.54c.12.35.4.62.76.72.41.12.85.1 1.25-.03.33-.08.63-.25.86-.5a.66.66 0 00.17-.64.54.54 0 00-.45-.37 4.47 4.47 0 00-1.3.04 6.45 6.45 0 01-2.93-.11 2.05 2.05 0 01-1.31-1.4c-.2-.62-.1-1.3.27-1.84a3.15 3.15 0 011.83-1.29 5 5 0 012.03-.2l-.08-.26 1.73-.54z" fill="#00AFFF"/><path d="M214.57 39.3l-.3-.95a17.7 17.7 0 007.74-.6c3.82-1.17 6.52-3.36 7.77-6.06l.82 2.66 7.24-2.23-3.58-11.64 7.08-2.18 3.58 11.63 7.2-2.22L243.59 0l-7.2 2.22 3.2 10.37-7.1 2.19L229.3 4.4l-7.24 2.24.46 1.5a16.65 16.65 0 00-8.6.24c-3.63 1.13-6.16 3.05-7.41 5.45l-.68-2.2-16.88 5.21 1.54 4.99c-1.54-1.69-3.75-2.54-6.63-2.54-1.88 0-4.06.37-6.48 1.11l-8.11 2.5L153 27.93l8.54 27.72 7.24-2.24-3.3-10.71 7.53-2.32-1.65-5.36-7.53 2.32-1.89-6.13 8.78-2.7 6.84 22.2 7.24-2.23-3.27-10.6 1.44-.45 9.14 8.8 5.38-1.66 17.08-5.27zm-18.38 1.02l-6.41-5.9a8.02 8.02 0 002.97-5.25l3.44 11.15zm22.43-21.29c-3.36-.06-4.75-.15-5.23-1.7-.2-.6-.09-1.26.3-1.75a4.42 4.42 0 012.25-1.36c.94-.28 1.91-.41 2.9-.4 1-.02 2 .13 2.96.43l.45.15 1.12-3.52 2.92 9.45c-2.38-1.29-5.29-1.3-7.67-1.3zm1.48 12.94c-.9.25-1.84.37-2.77.36-1.72 0-3.43-.3-5.04-.91l-.49-.2-.9 2.9-7.95 2.45-1.76-5.77 8.17-2.52-1.53-4.99c2.43 2.62 6.28 2.74 9.04 2.82h.23c3.65.07 5.16.18 5.76 2.25.47 1.61-.54 2.93-2.76 3.61zm-14.02-11.8c.3 1.04.81 2 1.5 2.83l-8.04 2.48-1.58-5.13 7.71-2.38c.05.75.2 1.49.41 2.2zm-21.15 10.27c-.51.83-1.47 1.47-2.86 1.89l-2.05.63-2.11-6.84 2.24-.7c.6-.2 1.24-.3 1.88-.31 1.57 0 2.6.8 3.1 2.4.36 1.16.29 2.14-.2 2.94v-.01z" fill="#FFF"/><path fill="#CEF0FF" opacity=".5" d="M130 8h1v48h-1z"/></g></svg>
