<svg width="278" height="78" xmlns="http://www.w3.org/2000/svg"><g fill="none" fill-rule="evenodd"><path d="M228.97151 55.75953a3.51669 3.51669 0 011.86815-.13066 2.1684 2.1684 0 011.25378.80342 6.68588 6.68588 0 01.88126 1.9877l1.0286 3.35823 1.43447-.44758.61994 2.02383-4.16999 1.2788-1.58181-5.1541c-.28078-.92296-.81176-1.26212-1.58738-1.02582a4.27007 4.27007 0 00-1.79587 1.2093l1.1954 3.90866 1.42613-.43646.61716 2.02662-4.17 1.2788-1.55123-5.0735c-.3058-.96928-.82936-1.33995-1.5707-1.11199a4.59255 4.59255 0 00-1.81533 1.21486l1.19818 3.91144 1.42058-.43645.61993 2.02661-5.58778 1.71525-.62272-2.02939 1.41502-.43646-1.45394-4.74822-1.42335.43924-.61994-2.02662 4.16999-1.2788.21962.71724a5.58222 5.58222 0 012.52979-1.7097c.98977-.35596 2.09124-.2032 2.94679.40867a6.16602 6.16602 0 013.10525-2.26292zm6.3356-.6811c1.32434-2.20578 4.09933-3.05723 6.4329-1.97379 1.12312.55322 1.90708 1.56514 2.33797 2.97737.4309 1.41224.3475 2.66323-.2641 3.76133-1.32027 2.21395-4.10077 3.07115-6.43846 1.98492-1.12867-.55044-1.91263-1.5429-2.3463-2.9746-.43369-1.4317-.33917-2.69103.278-3.77522zm4.93727.19739c-.40821-.32326-.9525-.41746-1.4456-.2502-1.13053.35213-1.44004 1.3622-.92852 3.03019a3.27483 3.27483 0 00.94242 1.56513c.4052.35586.9722.46244 1.47896.278a1.5707 1.5707 0 001.0564-.9869c.19181-.49205.16123-1.1676-.10009-2.02105a3.058 3.058 0 00-1.00357-1.61517zm5.74068-8.29272l1.0425 3.39715 1.58459-.48372.61994 2.0155-1.58182.4865 1.1676 3.81692a1.37332 1.37332 0 00.34194.65886c.12232.09452.33916.09452.64774 0a2.66601 2.66601 0 00.81175-.43368l.60048 1.946a5.55998 5.55998 0 01-1.946 1.07863c-1.50397.46426-2.49364-.07228-2.9579-1.60127l-1.41502-4.60645-1.09254.3336-.62271-2.02661 1.09531-.3336-.42534-1.39 2.12948-2.85783zm4.84552 3.33599c1.3284-2.19899 4.0976-3.04782 6.43012-1.97101 1.12683.57453 1.90615 1.56698 2.33798 2.97737.43182 1.41038.34472 2.66323-.26132 3.75855-1.32206 2.21316-4.10108 3.07193-6.44124 1.99047-1.12312-.556-1.9043-1.54846-2.34354-2.97737-.43923-1.42892-.34657-2.68825.278-3.77801zm15.49568-5.98254l.81453 2.64099a5.25696 5.25696 0 00-1.6263.75616 2.1406 2.1406 0 00-.76449 1.37053 4.02544 4.02544 0 00.1529 2.01828l.32804 1.0842 1.71525-.52542.61994 2.02661-6.05204 1.85703-.61994-2.03217 1.59016-.4726-1.45394-4.74544-1.49285.4587-.61994-2.02384 4.00597-1.23432.68943 2.2379a3.26093 3.26093 0 01.53932-1.99048 3.01629 3.01629 0 011.72916-1.29825c.12232-.03892.27244-.08062.4448-.12788zm-10.5612 6.17992c-.41021-.32135-.95474-.41437-1.44837-.24742-1.12867.35213-1.43725 1.3622-.92573 3.0302a3.24703 3.24703 0 00.94241 1.56513c.40437.35755.97236.46431 1.47896.278a1.57904 1.57904 0 001.05917-.97856c.1946-.5004.16124-1.17594-.10563-2.0294a3.05799 3.05799 0 00-1.0008-1.61795zm18.4953-8.49843l.78395 2.55759-1.96267.60048c-.36418-.55878-1.08976-.67276-2.16562-.34194-.79507.24186-1.1259.58936-.9869 1.03971a.43646.43646 0 00.3614.30858 5.61837 5.61837 0 001.3483-.06672 16.12394 16.12394 0 012.55203-.1668 2.75775 2.75775 0 011.55402.556 2.68825 2.68825 0 01.95354 1.40946 2.85227 2.85227 0 01-.26132 2.39357c-.42442.73021-1.19262 1.2649-2.30462 1.60406-1.02304.3058-1.7931.31135-2.29905 0l.13344.43923-2.00993.61716-.92574-3.0274 2.00715-.61439a1.28714 1.28714 0 00.86458.81732 2.38523 2.38523 0 001.42336-.03892 2.0572 2.0572 0 00.98133-.556.7506.7506 0 00.19182-.73392.61438.61438 0 00-.51152-.42533 5.08461 5.08461 0 00-1.4734.04726c-1.45949.19738-2.57426.15012-3.33598-.12788-.7294-.2476-1.28926-.83971-1.49564-1.58182a2.43805 2.43805 0 01.30858-2.10445 3.58063 3.58063 0 012.07944-1.46228 5.6962 5.6962 0 012.31295-.22518l-.09174-.30302 1.96823-.61437z" fill="#00AFFF"/><path d="M230.55054 50.09947l-.3336-1.0703a20.12436 20.12436 0 002.85506.20294 20.4802 20.4802 0 005.94084-.87847c4.34513-1.33996 7.4198-3.83361 8.84037-6.89438l.9313 3.02185 8.23711-2.53813-4.08102-13.23832 8.06197-2.47976 4.06157 13.23276 8.19263-2.52423-9.70217-31.51676-8.19263 2.527 3.63623 11.79273-8.06198 2.48254-3.63067-11.79829-8.23433 2.5437.5282 1.71803a16.33523 16.33523 0 00-4.28119-.53376 18.9373 18.9373 0 00-5.49048.80342c-4.14219 1.27601-7.01948 3.46109-8.44006 6.19382l-.77005-2.502-19.19863 5.92417 1.74584 5.6684c-1.74028-1.91541-4.25895-2.88841-7.53378-2.88841-2.1406 0-4.62034.42812-7.36698 1.27324l-9.22679 2.8467-18.50084 5.69899 9.71329 31.51954 8.23433-2.53813-3.75299-12.18748 8.56238-2.63821-1.88206-6.09652-8.55959 2.64099-2.14615-6.96666 9.97739-3.07745 7.78397 25.25066 8.23434-2.53813-3.71685-12.05682 1.62907-.50318 10.39717 10.00797 6.11598-1.88762 19.4238-5.99644zm-20.90275 1.1676l-7.28636-6.71368c1.8597-1.47421 3.07139-3.61536 3.37769-5.96864l3.90867 12.68232zm25.51476-24.20539c-3.82805-.07228-5.4043-.17236-5.94918-1.946-.23017-.6767-.09914-1.42407.3475-1.98213.49762-.65607 1.39-1.18983 2.54647-1.54845a11.53975 11.53975 0 013.29707-.45592 10.76413 10.76413 0 013.36657.49484l.51986.17236 1.27045-4.00597 3.31653 10.75023c-2.7077-1.47062-6.00756-1.47618-8.71527-1.47896zm1.6819 14.71172a10.99209 10.99209 0 01-3.1553.40866 16.08503 16.08503 0 01-5.724-1.03694l-.556-.21962-1.02303 3.29985-9.04331 2.77999-2.00994-6.56078 9.29907-2.86617-1.74583-5.67396c2.76331 2.98015 7.1418 3.1108 10.28597 3.20255h.26132c4.15052.07784 5.86578.20572 6.54966 2.56037.53097 1.8348-.61716 3.3332-3.13861 4.10605zm-15.94048-13.41624a9.17397 9.17397 0 001.6958 3.21645l-9.13505 2.8189-1.79588-5.83797 8.7681-2.70216c.0575.85028.21425 1.69091.46703 2.50478zm-24.06082 11.67596c-.57546.93964-1.668 1.668-3.24981 2.14616l-2.32686.72001-2.4019-7.78397 2.54368-.78396a7.38922 7.38922 0 012.14338-.3614c1.7792 0 2.96347.92018 3.52503 2.7383.4031 1.30659.32526 2.42692-.23352 3.3332v-.00834z" fill="#FFF"/><path fill="#CEF0FF" opacity=".504" d="M135.45313 0h1.08333v78h-1.08333z"/><g><path d="M44.0189 9.19833c1.03754 0 1.96607.17908 2.7856.53531.81952.3572 1.51738.83997 2.09358 1.44829.57425.60831 1.0171 1.31007 1.32565 2.10429.30756.79519.46134 1.63905.46134 2.5306 0 .87597-.15378 1.71204-.46134 2.50626-.30854.79617-.74653 1.49695-1.31397 2.10527-.5684.60831-1.26627 1.09107-2.0926 1.44828-.82732.35623-1.76072.53434-2.79827.53434-1.03852 0-1.97192-.17811-2.79826-.53434-.8273-.3572-1.52906-.83997-2.10429-1.44828-.5762-.60832-1.01905-1.3091-1.32759-2.10527-.30756-.79422-.46134-1.63029-.46134-2.50626 0-.89155.15378-1.73541.46134-2.5306.30854-.79422.7514-1.49598 1.3276-2.1043.57522-.60831 1.27697-1.09107 2.10428-1.44828.82634-.35623 1.75974-.53531 2.79826-.53531zm11.9964.21938v7.27547c0 1.96316.70467 2.94426 2.11596 2.94426.63363 0 1.24584-.19077 1.8376-.5723.59178-.38057 1.07454-.96066 1.44732-1.7393V9.4177h3.26058v9.0031c0 .34065.06131.58398.18298.72997.12166.146.32022.22776.59664.24333v2.77392c-.32509.06424-.59664.10512-.81564.12167-.21899.01654-.41852.02433-.59566.02433-.58496 0-1.05896-.13334-1.42395-.40198-.36499-.26668-.58009-.63556-.64433-1.10665l-.07397-1.02197c-.56841.87598-1.2984 1.53296-2.18994 1.97095-.89252.43799-1.87264.65698-2.94426.65698-1.31396 0-2.3116-.42241-2.99194-1.2653-.68132-.84288-1.02295-2.0926-1.02295-3.74723V9.4177h3.26155zM26.59707 4.89183l4.25822 8.32178 4.33025-8.32178h3.62654l-6.27783 11.2417v6.0345h-3.33358v-6.08317l-6.2535-11.19303h3.6499zm48.65174 4.35536a1.3597 1.3597 0 01.25598.02433v2.96859c-.98985.01654-1.87362.20731-2.65226.5723-.77865.36499-1.3383.91199-1.67896 1.64197v7.71346H67.913V9.41849h2.99292v2.72428c.22678-.43798.49444-.8312.80298-1.17964.30757-.34942.64044-.6531.99764-.91297.35623-.25987.71733-.45842 1.08232-.59566.36499-.13821.7183-.20731 1.05896-.20731h.401zm-31.22993 2.72603c-.47108 0-.90907.09636-1.31396.292-.40587.19466-.7582.46134-1.05896.80298-.29978.33968-.53532.74555-.70467 1.21663-.1713.4701-.25598.9811-.25598 1.53199 0 .5684.08467 1.08329.25598 1.5456.16935.46233.4049.8643.70467 1.20399.30075.34163.65309.60442 1.05896.7913.4049.18687.84288.2803 1.31396.2803.47011 0 .9081-.09343 1.313-.2803.40586-.18688.75917-.44967 1.05895-.7913.30075-.33969.53532-.74556.70565-1.21664.1713-.4701.25598-.98888.25598-1.55631 0-.55187-.08468-1.06286-.25598-1.53394-.17033-.4701-.4049-.87597-.70565-1.21663-.29978-.33968-.65309-.60442-1.05896-.79033-.4049-.18687-.84288-.27934-1.31299-.27934zM58.69111 33.5316c1.39475 0 2.58316.29977 3.56523.89933.98012.6015 1.71496 1.38793 2.20162 2.36124l-3.18758.9733c-.27545-.4701-.64044-.8312-1.09498-1.08328-.45453-.25112-.95773-.37667-1.50862-.37667-.4701 0-.90907.09344-1.31397.27934-.40587.18687-.7582.44674-1.05895.77864-.29978.33287-.53435.73485-.70468 1.20398-.1713.47206-.25598.99083-.25598 1.55827s.08857 1.08621.26766 1.55729c.17812.4701.41755.87598.7183 1.21663.29978.34066.65212.60443 1.05799.79033.40587.18688.8351.28031 1.28963.28031.58398 0 1.1232-.146 1.61763-.43799.49542-.29199.83997-.6492 1.03463-1.0716l3.18758.9733c-.43799.9733-1.1592 1.76947-2.1656 2.38558-1.0064.6161-2.21428.92464-3.62558.92464-1.03852 0-1.97094-.17909-2.79825-.53532-.82732-.35623-1.53296-.839-2.11695-1.4473-.58398-.60833-1.03462-1.31495-1.35095-2.11793-.31632-.802-.474-1.64294-.474-2.51794 0-.89252.15378-1.7354.46232-2.53157.30757-.79422.75431-1.49208 1.3383-2.09164.58398-.59956 1.28963-1.07843 2.11694-1.4366.82731-.35623 1.75974-.53435 2.79826-.53435zm-14.76916-.0006c1.03755 0 1.96608.1791 2.7856.53533.81953.3572 1.5174.83996 2.0936 1.44828.57424.60832 1.0171 1.31007 1.32564 2.10429.30756.7952.46134 1.63905.46134 2.5306 0 .87597-.15378 1.71204-.46134 2.50626-.30854.79617-.74653 1.49695-1.31397 2.10527-.56841.60831-1.26627 1.09107-2.09261 1.44828-.82731.35623-1.76071.53434-2.79826.53434-1.03852 0-1.97192-.17811-2.79826-.53434-.8273-.3572-1.52906-.83997-2.10429-1.44828-.5762-.60832-1.01905-1.3091-1.32759-2.10527-.30756-.79422-.46135-1.63029-.46135-2.50626 0-.89155.15379-1.73541.46135-2.5306.30854-.79422.7514-1.49597 1.3276-2.1043.57522-.6083 1.27697-1.09107 2.10428-1.44827.82634-.35623 1.75974-.53532 2.79826-.53532zm27.71434.0002c1.83274 0 3.25669.45064 4.27088 1.35095 1.0132.89934 1.5203 2.20162 1.5203 3.90491v3.9672c0 .33969.06132.58301.18298.72998.12167.14503.32022.22678.59567.24333v2.77295c-.5509.1129-1.03074.17033-1.43563.17033-.6161 0-1.09108-.1382-1.42395-.41365-.3319-.27545-.53921-.64044-.62-1.09498l-.073-.70467c-.56743.74555-1.25653 1.313-2.06827 1.70329-.81077.38835-1.67896.583-2.6036.583-.61708 0-1.1923-.10122-1.72762-.30366-.53532-.20245-.99764-.48666-1.38696-.85165-.38933-.36499-.693-.7913-.91297-1.27795-.21802-.48665-.328-1.02197-.328-1.60596 0-.59955.13432-1.15629.401-1.6663.26864-.51196.64141-.94508 1.12028-1.30228.4779-.35623 1.0502-.63557 1.71497-.839.66477-.20244 1.39475-.30464 2.18994-.30464.56744 0 1.1232.04867 1.6663.14697.54408.09636 1.02587.23457 1.44828.41268v-.72998c0-.84288-.23943-1.49208-.7183-1.94661-.4779-.45356-1.18743-.68132-2.12862-.68132-.68132 0-1.34706.12167-1.99528.365-.6492.24332-1.31397.60052-1.99528 1.07063l-.99764-2.06828c1.63807-1.0862 3.40657-1.63029 5.30452-1.63029zm12.06882-4.79334v13.67497c0 .4701.1129.8351.34066 1.09497.22678.2589.55186.38932.9733.38932.1937 0 .4088-.03212.64433-.09733.23554-.06521.45843-.146.66964-.24333l.43799 2.48194c-.438.2112-.94995.37277-1.53296.48665-.58399.11388-1.11152.17033-1.58163.17033-1.02197 0-1.81327-.27155-2.37292-.81563-.55965-.54214-.839-1.31689-.839-2.32329v-14.8186h3.26059zm-55.6977.48665v14.33195h8.8094v2.94426H24.65047v-17.2762h3.35693zm43.58022 11.19284c-.84386 0-1.53296.19077-2.06828.5723-.53532.38154-.80298.86333-.80298 1.44731 0 .55187.2112 1.0103.63265 1.37529.42144.36499.94022.547 1.5573.547.55088 0 1.07452-.09733 1.56896-.292.49542-.19466.88085-.45453 1.1563-.77864.35622-.27545.53531-.58399.53531-.92464V40.904c-.38932-.146-.81076-.2628-1.2653-.35234-.45453-.08955-.89252-.13432-1.31396-.13432zm-27.66568-4.11144c-.47108 0-.90907.09635-1.31396.29199-.40587.19466-.75821.46135-1.05896.80298-.29978.33968-.53532.74555-.70468 1.21663-.1713.4701-.25598.9811-.25598 1.53199 0 .5684.08468 1.08329.25598 1.5456.16936.46233.4049.8643.70468 1.20399.30075.34163.65309.60442 1.05896.7913.4049.18687.84288.28031 1.31396.28031.4701 0 .9081-.09344 1.313-.28031.40586-.18688.75917-.44967 1.05895-.7913.30075-.33968.53532-.74555.70565-1.21663.1713-.47011.25598-.98888.25598-1.55632 0-.55187-.08468-1.06285-.25598-1.53393-.17033-.47011-.4049-.87598-.70565-1.21664-.29978-.33968-.65309-.60442-1.05896-.79032-.4049-.18688-.84288-.27934-1.31299-.27934zM84.33756 57.8635c.98888 0 1.85707.22386 2.6036.66963.74653.44675 1.36166 1.04241 1.84831 1.78894v-2.2386h2.8479v12.142c0 .94022-.17812 1.78407-.5363 2.52963-.35622.74652-.84774 1.37917-1.47066 1.89795-.62584.51974-1.3714.91685-2.23958 1.19327-.8682.27545-1.8123.41366-2.83427.41366-1.39572 0-2.56759-.23165-3.51559-.69397-.94995-.46232-1.7646-1.11541-2.44592-1.95927l1.77629-1.72665c.48665.59956 1.09886 1.06967 1.8376 1.4113.73777.34066 1.5203.51001 2.34762.51001.50222 0 .98498-.0691 1.4473-.20634.4633-.1382.87209-.3533 1.2293-.6453.35622-.29102.63654-.66477.83898-1.11833.20245-.45454.30465-.99083.30465-1.60596v-1.60693c-.42242.72998-1.01419 1.2945-1.77726 1.69258-.7621.39711-1.58162.59567-2.45663.59567-.8604 0-1.63905-.17033-2.33594-.51196-.69786-.33969-1.3013-.80687-1.81327-1.39865-.51098-.59177-.9042-1.27795-1.18062-2.05562-.27544-.77865-.41268-1.60693-.41268-2.48193 0-.92465.146-1.78408.43799-2.58024.29199-.79422.69786-1.49208 1.21663-2.09164.51877-.60053 1.14364-1.07161 1.87362-1.4113.72998-.34163 1.53296-.51195 2.40893-.51195zm-37.2288.00038c1.8337 0 3.25668.45065 4.27087 1.35096 1.01418.89933 1.5203 2.20162 1.5203 3.9049v3.9672c0 .33969.06132.58302.18298.72999.12167.14502.32022.22678.59567.24332v2.77295c-.5509.1129-1.03073.17033-1.43563.17033-.6161 0-1.09108-.1382-1.42395-.41365-.3319-.27545-.53824-.64044-.61902-1.09497l-.073-.70468c-.56841.74556-1.25751 1.313-2.06828 1.70329-.81174.38835-1.67993.58301-2.6036.58301-.61707 0-1.19327-.10122-1.72859-.30367-.53434-.20245-.99764-.48665-1.38599-.85164-.3903-.365-.69397-.7913-.91296-1.27796-.219-.48665-.32898-1.02197-.32898-1.60595 0-.59956.13432-1.1563.40198-1.6663.26766-.51197.64043-.94509 1.1193-1.3023.4779-.35622 1.0502-.63556 1.71497-.83898.66574-.20245 1.39572-.30465 2.18994-.30465.56744 0 1.12417.04867 1.66728.14697.5431.09636 1.02586.23457 1.44828.41268v-.72998c0-.84288-.24041-1.49208-.7183-1.94661-.47887-.45356-1.18841-.68132-2.12863-.68132-.68131 0-1.34705.12167-1.99625.365-.64822.24332-1.31397.60053-1.99528 1.07063l-.99667-2.06828c1.6371-1.0862 3.40658-1.63029 5.30355-1.63029zm23.21298 0c1.83371 0 3.25669.45065 4.27088 1.35096 1.01418.89933 1.5203 2.20162 1.5203 3.9049v3.9672c0 .33969.06132.58302.18298.72999.12167.14502.32022.22678.59567.24332v2.77295c-.5509.1129-1.03073.17033-1.43563.17033-.6161 0-1.09108-.1382-1.42395-.41365-.3319-.27545-.53824-.64044-.61902-1.09497l-.073-.70468c-.56841.74556-1.25751 1.313-2.06828 1.70329-.81174.38835-1.67993.58301-2.6036.58301-.61707 0-1.19327-.10122-1.72859-.30367-.53434-.20245-.99764-.48665-1.38599-.85164-.3903-.365-.69397-.7913-.91296-1.27796-.219-.48665-.32898-1.02197-.32898-1.60595 0-.59956.13432-1.1563.40198-1.6663.26766-.51197.64043-.94509 1.1193-1.3023.4779-.35622 1.0502-.63556 1.71497-.83898.66574-.20245 1.39572-.30465 2.18994-.30465.56744 0 1.12417.04867 1.66727.14697.54311.09636 1.02587.23457 1.44829.41268v-.72998c0-.84288-.24041-1.49208-.7183-1.94661-.47887-.45356-1.18841-.68132-2.12863-.68132-.68131 0-1.34705.12167-1.99625.365-.64822.24332-1.31397.60053-1.99528 1.07063l-.99667-2.06828c1.6371-1.0862 3.40658-1.63029 5.30355-1.63029zm30.19628-.00019c1.03754 0 1.96705.17909 2.7856.53532.81953.3572 1.51739.83607 2.09359 1.4366.57522.59956 1.01321 1.29742 1.31299 2.09164.30075.79519.45064 1.6225.45064 2.4829 0 .21121-.0039.41366-.01168.60832-.00876.19369-.0292.35623-.06132.48666h-9.85473c.04866.50222.17033.948.36499 1.3383.19466.38834.44577.72121.75431.99666.30854.27642.65698.48665 1.04728.63362.38835.14503.79422.21802 1.21663.21802.64822 0 1.26044-.15767 1.83566-.474.5762-.31632.96941-.73387 1.18062-1.25264l2.79826.77864c-.4701.97331-1.22053 1.7724-2.25029 2.39531-1.03073.62584-2.26002.9373-3.68591.9373-1.02295 0-1.94662-.17423-2.7749-.52267-.82731-.34844-1.53296-.82244-2.11694-1.42395-.58301-.59956-1.03366-1.29742-1.35095-2.0926-.31633-.79423-.474-1.6303-.474-2.5053 0-.90907.15378-1.7646.46232-2.56759.30756-.80297.75431-1.50862 1.3383-2.11694.58398-.60832 1.29352-1.09108 2.12862-1.44828.83607-.35623 1.77336-.53532 2.8109-.53532zm-68.4712-4.42816c1.62153 0 3.01336.34066 4.17355 1.02197 1.1592.68132 2.03129 1.5972 2.61527 2.7496l-2.5053 1.84928c-.43798-.85943-1.05116-1.51641-1.8376-1.97095-.7874-.45453-1.64196-.68131-2.56758-.68131-.72998 0-1.39864.15475-2.00696.46232-.60832.30854-1.12709.72998-1.5573 1.2653-.4302.53532-.76306 1.1524-.99763 1.84928-.23554.6969-.35234 1.43563-.35234 2.21428 0 .81174.12848 1.56897.38835 2.27559.25987.70467.61708 1.31688 1.07161 1.83663.4526.51975.99278.9295 1.61764 1.22831.62389.30076 1.30228.45065 2.03227.45065 1.66922 0 3.17882-.78644 4.5249-2.36027v-1.21664h-3.4786v-2.4576h6.2535v8.88143h-2.7749v-1.94662c-1.3782 1.37918-2.98416 2.06828-4.8169 2.06828-1.13585 0-2.2026-.22678-3.20023-.68131-.99764-.45356-1.86583-1.0794-2.6036-1.87362-.73874-.79422-1.32272-1.73151-1.75195-2.81091-.4302-1.07843-.6453-2.24153-.6453-3.49125 0-1.18355.2151-2.29993.6453-3.34526.42923-1.0463 1.02197-1.96316 1.77628-2.7496.75432-.7874 1.64295-1.41226 2.66492-1.87361 1.021-.4633 2.13252-.69397 3.3326-.69397zm31.23052 4.47702a1.3597 1.3597 0 01.25597.02433v2.96859c-.98985.01655-1.87361.20731-2.65226.5723-.77864.365-1.3383.912-1.67895 1.64197v7.71346h-3.26058V58.08385h2.99292v2.72429c.22678-.43799.49444-.8312.80298-1.17965.30756-.34942.64043-.65309.99764-.91296.35623-.25987.71732-.45843 1.08231-.59567.365-.1382.7183-.20731 1.05896-.20731h.401zm-16.21725 6.83748c-.84289 0-1.53296.19077-2.06828.5723-.53532.38155-.80298.86333-.80298 1.44732 0 .55186.21121 1.01029.63265 1.37528.42242.36499.94119.547 1.5573.547.55089 0 1.07453-.09733 1.56994-.292.49444-.19466.87987-.45453 1.15629-.77864.35623-.27545.53532-.58398.53532-.92464v-1.45996c-.3903-.146-.81174-.2628-1.2653-.35234-.45454-.08954-.89253-.13432-1.31494-.13432zm23.21299 0c-.84289 0-1.53296.19077-2.06828.5723-.53532.38155-.80298.86333-.80298 1.44732 0 .55186.21121 1.01029.63265 1.37528.42242.36499.94119.547 1.5573.547.55089 0 1.07452-.09733 1.56994-.292.49444-.19466.87987-.45453 1.15629-.77864.35623-.27545.53532-.58398.53532-.92464v-1.45996c-.3903-.146-.81174-.2628-1.2653-.35234-.45454-.08954-.89253-.13432-1.31494-.13432zM85.0432 60.6384c-.5032 0-.95773.10901-1.3636.328-.4049.21998-.75334.511-1.04533.87599-.29297.36499-.51488.78253-.66867 1.25264-.15475.47108-.23262.95774-.23262 1.45996 0 .52072.08955 1.00738.26864 1.45996.17811.45454.42533.85165.74166 1.19328.3173.34066.68618.60832 1.10762.802.42144.19467.88376.29297 1.38696.29297.35623 0 .6969-.05743 1.02198-.1713.3241-.1129.62389-.26669.9003-.46135.27545-.19563.51878-.42242.72999-.68229.21023-.2589.37277-.53434.48665-.82634v-3.04158c-.292-.74653-.75042-1.34706-1.37528-1.8016-.6239-.45355-1.27698-.68034-1.9583-.68034zm15.42614-.41443c-.43799 0-.84775.07786-1.22831.23165-.38154.15378-.7183.36888-1.0103.64433-.29101.27642-.53142.60831-.71732.99861-.18688.38835-.29686.81952-.32898 1.28866h6.6185c-.0808-.95579-.4341-1.72373-1.058-2.29895-.62486-.57523-1.38404-.8643-2.27559-.8643z" fill="#FFF"/><path d="M9.8487 2.16667c1.09205 0 2.08093.1966 2.96762.59177.8857.39321 1.64683.92172 2.28143 1.5826.63654.66282 1.1232 1.43757 1.46385 2.32328.34066.88668.51099 1.8123.51099 2.77977 0 .96649-.17033 1.89308-.51099 2.77879-.34066.88668-.8273 1.66046-1.46385 2.3223-.29399.30707-.61512.5851-.96323.83438 1.19901.6122 2.2311 1.42628 3.09886 2.43867.89155 1.04533 1.57773 2.26586 2.05562 3.66158.0292.08468.30562.87014.4088 2.09261h-2.91312c-.3679-2.60554-2.66102-5.49724-4.95802-6.24571-.08857-.03212-.18006-.05159-.2696-.07981-.08955-.02434-.17715-.05548-.26767-.07787-.4594-.1129-.93437-.17325-1.42979-.17325-.4487 0-.88279.05061-1.30618.15281-2.5997.547-5.36876 3.57983-5.70066 6.40339L0 23.57242c.10122-1.22247.40198-2.0128.4302-2.09261.47692-1.39572 1.16213-2.61625 2.05465-3.66158.89253-1.04242 1.9622-1.8746 3.20705-2.49556l-.1333.07044c-.35345-.25275-.6779-.53529-.97354-.84792-.62584-.66185-1.10957-1.43563-1.45023-2.32231-.33969-.88571-.50904-1.8123-.50904-2.7788 0-.96746.16935-1.89308.50904-2.77976.34066-.88571.82828-1.66046 1.46385-2.32328.63557-.66088 1.3967-1.18939 2.2824-1.5826.88572-.39516 1.87557-.59177 2.96762-.59177zm0 2.52476c-.57328 0-1.1154.12555-1.62445.3757-.51098.2511-.95384.59079-1.32856 1.02002-.37667.4302-.67742.93535-.90031 1.51738-.22484.58204-.3358 1.20399-.3358 1.86583 0 .68035.10707 1.30716.32217 1.88043.2151.57328.51001 1.06967.88571 1.49014.37667.42144.81953.7514 1.32954.99277.51099.24235 1.05993.36305 1.6517.36305.5908 0 1.1417-.1207 1.6517-.36305.50904-.24138.95287-.57717 1.32857-1.0064.3757-.42923.67158-.93048.8857-1.50473.2151-.5723.32217-1.19814.32217-1.87848 0-.66185-.10706-1.28477-.32216-1.8668-.21413-.58107-.51001-1.08817-.88571-1.51642-.3757-.4302-.81953-.76502-1.32857-1.00737-.51-.24138-1.0609-.36207-1.6517-.36207zM14.3262 53.28155c-.46231-.3095-.96454-.46621-1.49597-.46621-.7728 0-1.3636.34942-1.85317.94703-.2735.33287-.51099 1.0103-.5655 1.9982l.01655 3.27226-.58009.3465-.57814-.3465.01654-3.27226c-.0545-.9879-.29296-1.66533-.56549-1.9982-.48957-.59761-1.08037-.94703-1.85415-.94703-.53045 0-1.03365.1567-1.49597.46621-2.84595 1.90866-4.15603 5.31913-3.33747 8.68872.43701 1.79672 1.51836 3.3871 3.00362 4.48792l-.03893 6.6584h2.58121l.04867-8.12128c-1.5135-.66283-2.69022-2.0128-3.08539-3.6353-.59566-2.45274.45356-4.7186 2.26586-5.93426.03115-.01947 0 5.15269 0 5.15269l3.03964 1.60985 3.04061-1.60985s-.03017-5.17216 0-5.15269c1.81327 1.21566 2.8625 3.48152 2.26684 5.93425-.39517 1.6225-1.57287 2.97248-3.08539 3.6353l.0477 8.12128h2.58218l-.03893-6.6584c1.48526-1.1008 2.56563-2.69119 3.00265-4.48791.81952-3.3696-.49055-6.78006-3.33747-8.68872M9.84841 45.08066c-.00195-.0039-4.8899-6.69635-4.8899-10.33847 0-.75626.12945-1.46775.39127-2.13251.26085-.66477.61124-1.2439 1.0502-1.73444.43896-.49152.95579-.8789 1.55243-1.167.59469-.28615 1.22734-.42922 1.896-.42922.66866 0 1.30131.14307 1.89698.42923.59566.2881 1.11346.67547 1.55242 1.167.43799.49054.78838 1.06966 1.04923 1.73443.26279.66476.39224 1.37625.39224 2.13251 0 3.64212-4.88795 10.33458-4.89087 10.33847m7.0701-13.43845c-.35817-.98596-.87208-1.84929-1.54171-2.58803-.66867-.73776-1.47067-1.32564-2.40407-1.7646-.93243-.43896-1.97387-.65796-3.12432-.65796s-2.19091.219-3.12432.65796c-.9334.43896-1.73443 1.02684-2.40407 1.7646-.66866.73874-1.18354 1.60207-1.54074 2.58803-.35818.9879-.5363 2.02058-.5363 3.09804 0 1.0755.21705 2.09358.5363 3.09706C4.5322 43.34428 9.84646 49.57247 9.8484 49.57442c.00195-.00195 5.3162-6.23014 7.0701-11.73711.31828-1.00348.5363-2.02156.5363-3.09706 0-1.07746-.17812-2.11014-.5363-3.09804" fill="#CEF0FF"/><path d="M9.84841 36.99676c1.31786 0 2.38558-1.06772 2.38558-2.3846 0-1.31786-1.06772-2.38558-2.38558-2.38558s-2.3846 1.06772-2.3846 2.38558c0 1.31688 1.06674 2.3846 2.3846 2.3846" fill="#00AFFF"/></g></g></svg>
