<svg width="16" height="16" xmlns="http://www.w3.org/2000/svg">
  <path d="M3.5166667 6.9916667C4.7166667 9.35 6.65 11.275 9.0083333 12.4833333L10.8416667 10.65c.225-.225.5583333-.3.85-.2.9333333.3083333 1.9416666.475 2.975.475.4583333 0 .8333333.375.8333333.8333333v2.9083334C15.5 15.125 15.125 15.5 14.6666667 15.5 6.8416667 15.5.5 9.1583333.5 1.3333333.5.875.875.5 1.3333333.5H4.25c.4583333 0 .8333333.375.8333333.8333333 0 1.0416667.1666667 2.0416667.475 2.975.0916667.2916667.025.6166667-.2083333.85L3.5166667 6.9916667z" fill="#283453" fill-rule="evenodd"/>
</svg>
