<svg width="24" height="21" xmlns="http://www.w3.org/2000/svg">
  <path d="M15.82967 0C20.08459 0 24 2.0175093 24 6.6145846v7.8902747C24 19.0722801 20.0845 21 15.82967 21H8V0h7.82967zM1.99915 14C3.12257 14 4 14.8553679 4 16.0137054 4 17.1451444 3.12257 18 1.99915 18 .87692 18 0 17.1451444 0 16.0137054 0 14.8553679.87692 14 1.99915 14zM15.82967 3.4408289h-4.28412v14.1189849h4.28412c2.43568 0 4.59482-.8604368 4.59482-3.0549545V6.6145846c0-2.2249984-2.15914-3.1737557-4.59482-3.1737557zM1.99915 4C3.12257 4 4 4.854795 4 5.9862116 4 7.1174575 3.12257 8 1.99915 8 .87692 8 0 7.1174575 0 5.9862116 0 4.854795.87692 3.9999146 1.99915 4z" fill="#CEF0FF" fill-rule="evenodd"/>
</svg>
