<?xml version="1.0" encoding="UTF-8"?>
<svg width="24px" height="21px" viewBox="0 0 24 21" version="1.1" xmlns="http://www.w3.org/2000/svg" xmlns:xlink="http://www.w3.org/1999/xlink">
    <title>Combined Shape</title>
    <g id="04.-Symbols" stroke="none" stroke-width="1" fill="none" fill-rule="evenodd">
        <g id="UI-/-Navigation-/-Footer" transform="translate(-1316.000000, -35.000000)" fill="#50505A">
            <path d="M1331.82967,35 C1336.08459,35 1340,37.0175093 1340,41.6145846 L1340,49.5048593 C1340,54.0722801 1336.0845,56 1331.82967,56 L1324,56 L1324,35 L1331.82967,35 Z M1317.99915,49 C1319.12257,49 1320,49.8553679 1320,51.0137054 C1320,52.1451444 1319.12257,53 1317.99915,53 C1316.87692,53 1316,52.1451444 1316,51.0137054 C1316,49.8553679 1316.87692,49 1317.99915,49 Z M1331.82967,38.4408289 L1327.54555,38.4408289 L1327.54555,52.5598138 L1331.82967,52.5598138 C1334.26535,52.5598138 1336.42449,51.699377 1336.42449,49.5048593 L1336.42449,41.6145846 C1336.42449,39.3895862 1334.26535,38.4408289 1331.82967,38.4408289 Z M1317.99915,39 C1319.12257,39 1320,39.854795 1320,40.9862116 C1320,42.1174575 1319.12257,43 1317.99915,43 C1316.87692,43 1316,42.1174575 1316,40.9862116 C1316,39.854795 1316.87692,38.9999146 1317.99915,39 Z" id="Combined-Shape"></path>
        </g>
    </g>
</svg>
