<svg width="14" height="18" xmlns="http://www.w3.org/2000/svg"><path d="M10.40436 1.26253C10.0367 1.00526 9.63732.875 9.21472.875c-.61456 0-1.08438.29045-1.4737.7872-.2175.27669-.40635.83978-.4497 1.66096l.01316 2.72-.4613.28802-.45976-.28802.01316-2.72c-.04334-.82118-.23297-1.38427-.4497-1.66096C5.55757 1.16545 5.08776.875 4.47242.875c-.42183 0-.82198.13026-1.18963.38753C1.0196 2.84906-.02221 5.68395.62873 8.48485c.34752 1.4935 1.20744 2.81547 2.38856 3.7305L2.98633 17.75h2.05265l.0387-6.75065c-1.20357-.55095-2.13933-1.6731-2.45358-3.02177-.47369-2.03879.36069-3.92224 1.80187-4.93273.02477-.01618 0 4.28307 0 4.28307l2.4172 1.33816 2.41799-1.33816s-.024-4.29925 0-4.28307c1.44196 1.0105 2.27633 2.89394 1.80264 4.93273-.31424 1.34867-1.25078 2.47082-2.45358 3.02177L8.64815 17.75h2.05342l-.03096-5.53466c1.18113-.91502 2.04027-2.237 2.3878-3.73049.6517-2.8009-.3901-5.63579-2.65405-7.22232" fill="#CEF0FF" fill-rule="evenodd"/></svg>
