<svg width="20" height="17" xmlns="http://www.w3.org/2000/svg">
  <path d="M9.7111412 4.7299976l.0433533.7148756-.7225551-.0875358C6.4018386 5.0217836 4.1041133 3.8838182 2.1532144 1.97262l-.9537729-.9483045-.2456687.7002864c-.5202397 1.561055-.1878643 3.209646.8959684 4.3184327.5780441.6127506.4479842.7002864-.549142.335554C.9537729 6.261874.6502997 6.1743381.6213975 6.218106c-.1011577.1021251.2456688 1.4297514.5202397 1.9549662.3757287.729465 1.1416372 1.4443407 1.9798012 1.8674304l.708104.3355539-.838164.0145893c-.8092617 0-.838164.0145893-.7514573.3209646.289022.9483044 1.4306592 1.9549661 2.7023562 2.3926451l.8959684.3063753-.7803595.4668576c-1.1560883.6711078-2.514492 1.0504296-3.8728957 1.0796082C.5346908 14.971686 0 15.0300432 0 15.0738111c0 .145893 1.7630346.9628938 2.7890629 1.2838584 3.078085.9483044 6.734214.5398041 9.4799236-1.0796082 1.9508989-1.1525547 3.9017978-3.4430748 4.8122173-5.6606483.4913375-1.1817333.982675-3.3409497.982675-4.37679 0-.6711077.0433533-.7586435.8526151-1.561055.4768864-.4668576.9248706-.9774831 1.0115772-1.1233761.144511-.2771967.1300599-.2771967-.6069464-.0291786-1.2283437.437679-1.4017569.3793218-.7948106-.2771967.4479842-.4668576.982675-1.313037.982675-1.561055 0-.043768-.2167666.0291785-.4624353.1604822-.2601199.145893-.838164.3647325-1.2716971.4960362l-.7803595.2480181-.7081041-.4814469c-.3901798-.2626074-.9393217-.5543934-1.2283437-.6419292-.7370063-.2042502-1.8641923-.1750716-2.5289431.0583572-1.8063879.6565185-2.948025 2.3488773-2.817965 4.2017184z" fill="#CEF0FF" fill-rule="evenodd"/>
</svg>
