<svg width="213" height="66" xmlns="http://www.w3.org/2000/svg"><g fill="none" fill-rule="evenodd"><path d="M72.09 9.33v9.37c0 2.53.9 3.8 2.72 3.8.82 0 1.6-.25 2.37-.75a5.28 5.28 0 0 0 1.86-2.23V9.33h4.2v11.6c0 .43.07.75.23.93.16.2.41.3.77.32v3.57a9.16 9.16 0 0 1-1.82.19c-.75 0-1.36-.17-1.83-.52a2.03 2.03 0 0 1-.83-1.42l-.1-1.32a7 7 0 0 1-2.81 2.54 8.48 8.48 0 0 1-3.8.84c-1.68 0-2.97-.54-3.84-1.63-.88-1.08-1.32-2.69-1.32-4.82V9.33h4.2Zm-15.44-.28a8.9 8.9 0 0 1 3.58.7 8.14 8.14 0 0 1 4.4 4.57c.4 1.02.6 2.1.6 3.25 0 1.13-.2 2.2-.6 3.23a7.95 7.95 0 0 1-4.38 4.57 9.02 9.02 0 0 1-3.6.7 9.01 9.01 0 0 1-3.6-.7 8.08 8.08 0 0 1-4.42-4.57 8.96 8.96 0 0 1 0-6.48 8.08 8.08 0 0 1 4.42-4.57 9.01 9.01 0 0 1 3.6-.7ZM34.23 3.51l5.48 10.71 5.57-10.71h4.67l-8.08 14.47v7.77h-4.3v-7.83L29.54 3.5h4.7Zm62.61 5.6c.12 0 .22.02.33.04v3.82a8.28 8.28 0 0 0-3.41.74 4.3 4.3 0 0 0-2.16 2.1v9.94h-4.2V9.34h3.85v3.5a7.43 7.43 0 0 1 3.71-3.46c.47-.18.93-.26 1.36-.26h.52Zm-40.19 3.51c-.6 0-1.17.13-1.7.38-.51.25-.97.6-1.35 1.03-.39.44-.7.96-.91 1.57-.22.6-.33 1.26-.33 1.97 0 .73.1 1.4.33 2 .22.59.52 1.1.9 1.54a4.06 4.06 0 0 0 6.11 0c.39-.43.7-.96.91-1.56.22-.6.33-1.28.33-2s-.1-1.38-.33-1.98a4.82 4.82 0 0 0-.9-1.57 4.06 4.06 0 0 0-3.06-1.38ZM157.73 9.3a8.9 8.9 0 0 1 3.59.7 8.14 8.14 0 0 1 4.4 4.57c.4 1.02.6 2.1.6 3.25 0 1.13-.2 2.2-.6 3.23a7.95 7.95 0 0 1-4.38 4.57 9.02 9.02 0 0 1-3.6.7 9.01 9.01 0 0 1-3.6-.7 8.08 8.08 0 0 1-4.42-4.57 8.96 8.96 0 0 1 0-6.48 8.08 8.08 0 0 1 4.42-4.57 9.01 9.01 0 0 1 3.6-.7Zm19.01 0c1.8 0 3.32.39 4.59 1.16a7.42 7.42 0 0 1 2.83 3.04l-4.1 1.25a3.69 3.69 0 0 0-1.4-1.39 3.95 3.95 0 0 0-1.95-.49 4 4 0 0 0-3.05 1.37c-.39.43-.7.94-.91 1.55-.22.6-.33 1.27-.33 2s.11 1.4.34 2c.23.61.54 1.14.93 1.57a4.04 4.04 0 0 0 5.1.82 3.17 3.17 0 0 0 1.33-1.38l4.1 1.25a6.9 6.9 0 0 1-2.78 3.07 8.76 8.76 0 0 1-4.67 1.2 9.02 9.02 0 0 1-3.6-.7 8.25 8.25 0 0 1-4.46-4.59 8.94 8.94 0 0 1-.02-6.5 7.92 7.92 0 0 1 4.45-4.54 9.02 9.02 0 0 1 3.6-.69Zm16.66 0c2.36 0 4.2.58 5.5 1.74 1.3 1.16 1.95 2.84 1.95 5.03v5.1c0 .44.08.76.24.95.16.18.41.29.77.31V26a9.4 9.4 0 0 1-1.85.22c-.8 0-1.4-.18-1.83-.53-.43-.36-.7-.83-.8-1.41l-.1-.91a7.27 7.27 0 0 1-2.66 2.2c-1.04.5-2.16.74-3.35.74-.8 0-1.53-.13-2.22-.39a5.34 5.34 0 0 1-2.96-2.74 5 5 0 0 1 .1-4.21c.34-.66.82-1.22 1.43-1.68a7.17 7.17 0 0 1 2.21-1.08c.86-.26 1.8-.4 2.82-.4.73 0 1.44.07 2.14.2.7.12 1.32.3 1.87.53v-.94c0-1.09-.31-1.92-.93-2.5-.61-.59-1.53-.88-2.74-.88-.87 0-1.73.15-2.56.47-.84.31-1.7.77-2.57 1.37l-1.29-2.66c2.11-1.4 4.39-2.1 6.83-2.1Zm15.53-6.17v17.6c0 .61.15 1.08.44 1.42.3.33.71.5 1.25.5.25 0 .53-.04.83-.13.3-.08.6-.19.86-.31l.57 3.2a10.73 10.73 0 0 1-4 .85 4.2 4.2 0 0 1-3.06-1.06c-.72-.7-1.08-1.7-1.08-2.99V3.13h4.2Zm-71.68.63V22.2h11.34V26h-15.66V3.76h4.32Zm56.09 14.4c-1.09 0-1.98.25-2.66.75a2.21 2.21 0 0 0-1.04 1.86c0 .7.27 1.3.82 1.77.54.47 1.2.7 2 .7.71 0 1.38-.12 2.02-.37a3.66 3.66 0 0 0 1.49-1c.46-.36.69-.76.69-1.2V18.8a10.3 10.3 0 0 0-3.32-.62Zm-35.6-5.28c-.61 0-1.18.12-1.7.37s-.97.6-1.36 1.03c-.39.44-.69.96-.9 1.57-.23.6-.34 1.26-.34 1.97 0 .74.11 1.4.33 2 .22.59.52 1.1.91 1.54a4.06 4.06 0 0 0 6.1 0c.4-.43.7-.96.91-1.56.22-.6.33-1.28.33-2s-.1-1.37-.33-1.98a4.82 4.82 0 0 0-.9-1.57 4.06 4.06 0 0 0-3.06-1.37ZM107.54 41.63c1.27 0 2.38.29 3.35.86a7.26 7.26 0 0 1 2.37 2.3v-2.88h3.67v15.63a7.15 7.15 0 0 1-2.58 5.7 8.48 8.48 0 0 1-2.89 1.54 12 12 0 0 1-3.64.53c-1.8 0-3.3-.3-4.53-.89a9.16 9.16 0 0 1-3.15-2.52l2.3-2.22a6.52 6.52 0 0 0 2.36 1.81 7.12 7.12 0 0 0 4.88.4 4.5 4.5 0 0 0 1.58-.84c.46-.37.82-.85 1.08-1.44.26-.58.4-1.27.4-2.07v-2.06a5.55 5.55 0 0 1-2.3 2.18c-.97.5-2.03.76-3.16.76-1.1 0-2.1-.22-3-.66a7.26 7.26 0 0 1-2.34-1.8 8.22 8.22 0 0 1-1.51-2.64c-.36-1-.54-2.07-.54-3.2 0-1.19.2-2.3.57-3.32.37-1.02.9-1.92 1.56-2.7a7.12 7.12 0 0 1 5.52-2.47Zm-47.92 0c2.36 0 4.2.58 5.5 1.74 1.3 1.16 1.96 2.83 1.96 5.03v5.1c0 .44.08.76.23.94.16.2.41.3.77.32v3.57a9.4 9.4 0 0 1-1.85.22c-.8 0-1.4-.18-1.83-.54-.43-.35-.7-.82-.8-1.4l-.1-.91a7.3 7.3 0 0 1-2.65 2.19c-1.05.5-2.17.75-3.35.75-.8 0-1.54-.13-2.23-.39a5.33 5.33 0 0 1-2.96-2.74 4.98 4.98 0 0 1 .1-4.21c.34-.66.82-1.22 1.44-1.68a7.17 7.17 0 0 1 2.2-1.08c.86-.26 1.8-.4 2.82-.4.73 0 1.45.07 2.15.2.7.12 1.32.3 1.86.53v-.94c0-1.09-.3-1.92-.92-2.5-.62-.6-1.53-.89-2.74-.89-.88 0-1.74.16-2.57.47-.84.32-1.7.78-2.57 1.38l-1.28-2.66c2.1-1.4 4.38-2.1 6.82-2.1Zm29.88 0c2.36 0 4.19.58 5.5 1.74 1.3 1.16 1.95 2.83 1.95 5.03v5.1c0 .44.08.76.24.94.15.2.4.3.76.32v3.57a9.4 9.4 0 0 1-1.85.22c-.79 0-1.4-.18-1.83-.54-.42-.35-.69-.82-.8-1.4l-.09-.91a7.3 7.3 0 0 1-2.66 2.19c-1.04.5-2.16.75-3.35.75-.8 0-1.54-.13-2.23-.39a5.33 5.33 0 0 1-2.95-2.74 4.98 4.98 0 0 1 .09-4.21c.34-.66.82-1.22 1.44-1.68a7.17 7.17 0 0 1 2.2-1.08c.86-.26 1.8-.4 2.83-.4.73 0 1.44.07 2.14.2.7.12 1.32.3 1.87.53v-.94c0-1.09-.31-1.92-.93-2.5-.62-.6-1.53-.89-2.74-.89-.88 0-1.73.16-2.57.47-.83.32-1.69.78-2.57 1.38l-1.28-2.66c2.1-1.4 4.39-2.1 6.83-2.1Zm38.86 0a8.9 8.9 0 0 1 3.58.69 7.85 7.85 0 0 1 4.38 4.54 8.96 8.96 0 0 1 .57 3.98 3.3 3.3 0 0 1-.08.63h-12.68c.06.64.22 1.22.47 1.72a4.26 4.26 0 0 0 3.88 2.38c.84 0 1.63-.2 2.37-.61.74-.4 1.24-.94 1.52-1.61l3.6 1a7.3 7.3 0 0 1-2.9 3.08c-1.32.8-2.9 1.21-4.74 1.21-1.32 0-2.5-.22-3.57-.67a8.16 8.16 0 0 1-5.08-7.75c0-1.18.2-2.28.6-3.31a8.05 8.05 0 0 1 4.46-4.59 9.14 9.14 0 0 1 3.62-.69Zm-88.12-5.7c2.09 0 3.88.44 5.37 1.32a8.51 8.51 0 0 1 3.37 3.54l-3.23 2.38a6 6 0 0 0-2.36-2.54 6.49 6.49 0 0 0-3.3-.88c-.95 0-1.8.2-2.59.6-.78.4-1.45.94-2 1.63a7.67 7.67 0 0 0-1.29 2.38 8.85 8.85 0 0 0 .05 5.78c.33.9.8 1.7 1.38 2.36.58.67 1.28 1.2 2.08 1.58.8.39 1.68.58 2.62.58 2.14 0 4.09-1.01 5.82-3.04v-1.56h-4.48v-3.17h8.05v11.44h-3.57v-2.5a8.5 8.5 0 0 1-6.2 2.65c-1.46 0-2.84-.29-4.12-.87a10.4 10.4 0 0 1-3.35-2.41 12.02 12.02 0 0 1-2.25-12.42 10.92 10.92 0 0 1 5.72-5.95c1.3-.6 2.74-.9 4.28-.9Zm40.2 5.76c.1 0 .22.01.32.03v3.83a8.28 8.28 0 0 0-3.41.73 4.3 4.3 0 0 0-2.16 2.12v9.93h-4.2V41.9h3.85v3.51a7.43 7.43 0 0 1 3.71-3.46c.47-.18.93-.27 1.37-.27h.51Zm-20.88 8.8c-1.08 0-1.97.25-2.66.74a2.21 2.21 0 0 0-1.03 1.87c0 .7.27 1.3.81 1.77s1.21.7 2 .7c.71 0 1.39-.12 2.02-.38a3.68 3.68 0 0 0 1.5-1c.45-.35.68-.75.68-1.19v-1.88a10.38 10.38 0 0 0-3.32-.62Zm29.87 0c-1.08 0-1.97.25-2.66.74a2.21 2.21 0 0 0-1.03 1.87c0 .7.27 1.3.81 1.77.55.47 1.22.7 2 .7.72 0 1.4-.12 2.03-.38a3.68 3.68 0 0 0 1.49-1c.46-.35.69-.75.69-1.19v-1.88a10.38 10.38 0 0 0-3.33-.62Zm19.01-5.29c-.64 0-1.23.14-1.75.43-.52.28-.97.65-1.35 1.12-.37.47-.66 1.01-.86 1.62-.2.6-.3 1.23-.3 1.87a5.06 5.06 0 0 0 1.3 3.42c.41.44.89.78 1.43 1.03a4.2 4.2 0 0 0 4.26-.43c.35-.26.67-.55.94-.88.27-.34.48-.69.62-1.07V48.4a5.1 5.1 0 0 0-1.77-2.32 4.22 4.22 0 0 0-2.52-.88Zm19.86-.53a4.18 4.18 0 0 0-4.23 4.07h8.52a4.37 4.37 0 0 0-1.37-2.96 4.17 4.17 0 0 0-2.92-1.11Z" fill="#FFF"/><path d="M12.67 0a9.28 9.28 0 0 1 6.76 2.8 8.85 8.85 0 0 1 1.88 2.99 9.9 9.9 0 0 1 0 7.16A8.82 8.82 0 0 1 18.2 17a13 13 0 0 1 3.99 3.14 14.34 14.34 0 0 1 2.64 4.71c.04.11.4 1.12.53 2.7H21.6c-.47-3.36-3.42-7.08-6.38-8.04l-.35-.1c-.11-.04-.22-.08-.34-.1a7.67 7.67 0 0 0-3.52-.03c-3.35.7-6.91 4.6-7.34 8.24L0 27.56c.13-1.58.52-2.6.55-2.7a14.3 14.3 0 0 1 2.65-4.71 13.04 13.04 0 0 1 4.13-3.21l-.18.09a8.62 8.62 0 0 1-3.12-4.08 9.92 9.92 0 0 1 0-7.16A8.87 8.87 0 0 1 8.86.76 9.27 9.27 0 0 1 12.67 0Zm0 3.25c-.73 0-1.43.16-2.09.48-.65.33-1.22.76-1.7 1.32a6.6 6.6 0 0 0-1.6 4.36c0 .87.14 1.68.42 2.41.27.74.65 1.38 1.14 1.92.48.54 1.05.97 1.7 1.28.67.31 1.37.47 2.13.47.76 0 1.47-.16 2.13-.47a5.23 5.23 0 0 0 1.71-1.3 6.2 6.2 0 0 0 1.14-1.93c.28-.74.41-1.55.41-2.42 0-.85-.13-1.66-.41-2.4A6.16 6.16 0 0 0 16.51 5a4.9 4.9 0 0 0-3.84-1.76ZM18.13 34.68a3.4 3.4 0 0 0-1.92-.6c-1 0-1.76.45-2.39 1.22-.35.43-.65 1.3-.72 2.57l.02 4.22-.75.44-.74-.44.02-4.22c-.07-1.27-.38-2.14-.73-2.57a2.97 2.97 0 0 0-2.39-1.22c-.68 0-1.33.2-1.92.6a10.38 10.38 0 0 0-.43 16.97l-.05 8.57h3.32l.06-10.46a7.08 7.08 0 0 1-1.05-12.32c.04-.02 0 6.64 0 6.64l3.91 2.07 3.91-2.07s-.04-6.66 0-6.64a7.08 7.08 0 0 1-1.05 12.32l.06 10.46h3.32l-.05-8.57a10.37 10.37 0 0 0-.43-16.96M115.89 24.17s-6.3-8.62-6.3-13.3a7.43 7.43 0 0 1 1.86-4.99 6.35 6.35 0 0 1 2-1.5 5.56 5.56 0 0 1 4.88 0c.77.37 1.43.87 2 1.5a7.35 7.35 0 0 1 1.85 4.98c0 4.7-6.29 13.3-6.3 13.31m9.1-17.3a9.7 9.7 0 0 0-5.08-5.6 9.32 9.32 0 0 0-4.01-.85 9.33 9.33 0 0 0-7.12 3.12 9.97 9.97 0 0 0-1.98 3.33c-.46 1.27-.69 2.6-.69 3.99 0 1.38.28 2.7.69 3.99 2.26 7.09 9.1 15.1 9.1 15.1s6.84-8.01 9.1-15.1c.4-1.3.69-2.6.69-3.99 0-1.39-.23-2.72-.7-3.99" fill="#CEF0FF"/><path d="M115.89 13.76a3.07 3.07 0 1 0 0-6.13 3.07 3.07 0 0 0 0 6.13" fill="#00AFFF"/></g></svg>
