<svg width="409" height="38" xmlns="http://www.w3.org/2000/svg"><g fill="none" fill-rule="evenodd"><path d="M65.2 10.35c1.54 0 2.91.26 4.13.79a9.37 9.37 0 0 1 5.06 5.23c.46 1.17.68 2.4.68 3.72 0 1.3-.22 2.52-.68 3.69a9.15 9.15 0 0 1-5.05 5.23c-1.22.53-2.6.79-4.14.79-1.54 0-2.92-.26-4.14-.79a9.3 9.3 0 0 1-5.09-5.23c-.45-1.17-.68-2.4-.68-3.69 0-1.31.23-2.55.68-3.72a9.3 9.3 0 0 1 5.08-5.23c1.23-.53 2.61-.79 4.15-.79Zm17.77.32v10.71c0 2.9 1.04 4.33 3.13 4.33.94 0 1.85-.28 2.73-.84a6.05 6.05 0 0 0 2.14-2.56V10.67h4.83v13.25c0 .5.09.86.27 1.08.18.21.47.33.88.36v4.08a10.61 10.61 0 0 1-2.09.21c-.86 0-1.56-.2-2.1-.59-.55-.39-.86-.93-.96-1.63l-.1-1.5a8.04 8.04 0 0 1-3.25 2.9 9.8 9.8 0 0 1-4.36.97c-1.95 0-3.43-.62-4.44-1.86-1-1.25-1.51-3.08-1.51-5.52V10.67h4.83ZM39.4 4.01l6.3 12.25 6.42-12.25h5.37l-9.3 16.55v8.88h-4.94v-8.95L34 4h5.4Zm72.06 6.41c.13 0 .26.01.38.04v4.37c-1.47.02-2.78.3-3.93.84a4.94 4.94 0 0 0-2.49 2.42v11.35h-4.83V10.67h4.44v4.01a8.5 8.5 0 0 1 2.66-3.08 6.79 6.79 0 0 1 1.6-.87c.55-.2 1.07-.3 1.57-.3h.6ZM65.2 14.43c-.7 0-1.35.15-1.95.43-.6.29-1.12.68-1.56 1.19-.45.5-.8 1.1-1.05 1.79a6.5 6.5 0 0 0-.38 2.25c0 .84.13 1.6.38 2.28.25.68.6 1.27 1.05 1.77a4.67 4.67 0 0 0 7.02 0c.45-.5.8-1.1 1.05-1.8.25-.68.38-1.45.38-2.28 0-.82-.13-1.57-.38-2.26A5.5 5.5 0 0 0 68.7 16a4.67 4.67 0 0 0-3.5-1.57ZM203.42 10.64a10 10 0 0 1 5.28 1.32 8.51 8.51 0 0 1 3.26 3.48l-4.72 1.43c-.4-.7-.95-1.22-1.62-1.6a4.57 4.57 0 0 0-2.24-.55 4.64 4.64 0 0 0-3.51 1.56c-.44.49-.8 1.08-1.04 1.77-.26.7-.38 1.46-.38 2.3 0 .83.13 1.6.4 2.29.26.69.61 1.28 1.06 1.79a4.64 4.64 0 0 0 5.87.93 3.63 3.63 0 0 0 1.53-1.58l4.72 1.43a7.9 7.9 0 0 1-3.2 3.51c-1.5.91-3.28 1.36-5.37 1.36-1.54 0-2.92-.26-4.15-.78a9.5 9.5 0 0 1-5.84-8.96c0-1.31.23-2.55.69-3.72a9.04 9.04 0 0 1 1.98-3.08 9.7 9.7 0 0 1 3.14-2.12c1.22-.52 2.6-.78 4.14-.78Zm-21.88 0c1.54 0 2.92.26 4.13.78a9.37 9.37 0 0 1 5.06 5.23c.46 1.17.69 2.42.69 3.73 0 1.29-.23 2.52-.69 3.69a9.15 9.15 0 0 1-5.05 5.23c-1.22.52-2.6.78-4.14.78-1.53 0-2.92-.26-4.14-.78a9.3 9.3 0 0 1-5.08-5.23c-.46-1.17-.69-2.4-.69-3.7 0-1.3.23-2.55.69-3.72a9.3 9.3 0 0 1 5.08-5.23c1.22-.52 2.6-.78 4.14-.78Zm41.05 0c2.72 0 4.83.66 6.33 1.99 1.5 1.32 2.25 3.24 2.25 5.74v5.84c0 .5.1.86.27 1.08.18.21.48.33.89.35v4.09c-.82.16-1.53.25-2.13.25-.91 0-1.62-.2-2.11-.61-.5-.4-.8-.94-.92-1.61l-.1-1.04a8.36 8.36 0 0 1-3.07 2.5c-1.2.58-2.49.86-3.86.86-.91 0-1.76-.14-2.56-.44a5.86 5.86 0 0 1-3.4-3.13 5.69 5.69 0 0 1 .1-4.82c.4-.76.96-1.4 1.67-1.92.7-.52 1.55-.94 2.54-1.24.98-.3 2.06-.44 3.24-.44.84 0 1.66.07 2.47.21.8.14 1.52.35 2.14.61v-1.07c0-1.25-.35-2.2-1.06-2.87-.7-.67-1.76-1-3.15-1-1.01 0-2 .18-2.96.53-.96.36-1.95.89-2.95 1.58l-1.48-3.04c2.42-1.6 5.04-2.4 7.85-2.4Zm17.88-7.06v20.13c0 .7.17 1.23.5 1.61.34.38.82.57 1.45.57.28 0 .6-.04.95-.14s.68-.21 1-.36l.64 3.66a12.43 12.43 0 0 1-4.61.97c-1.52 0-2.69-.4-3.52-1.2-.83-.8-1.24-1.95-1.24-3.43V3.6h4.83Zm-82.5.72v21.1h13.05v4.33H153V4.3h4.97Zm64.55 16.47c-1.25 0-2.27.28-3.06.84a2.56 2.56 0 0 0-.25 4.15c.62.55 1.39.81 2.3.81.82 0 1.6-.14 2.33-.43.73-.28 1.3-.66 1.71-1.14.53-.4.8-.86.8-1.36v-2.15a11.92 11.92 0 0 0-3.83-.72Zm-40.98-6.05c-.7 0-1.34.14-1.94.43-.6.29-1.13.68-1.57 1.18-.44.5-.8 1.1-1.04 1.8a6.5 6.5 0 0 0-.38 2.25c0 .83.12 1.6.38 2.27.25.68.6 1.28 1.04 1.78a4.67 4.67 0 0 0 7.03 0c.44-.5.79-1.1 1.04-1.8.26-.69.38-1.45.38-2.29 0-.8-.12-1.56-.38-2.25a5.5 5.5 0 0 0-1.04-1.8 4.67 4.67 0 0 0-3.52-1.57ZM375.2 10.92c1.46 0 2.74.33 3.85.99a8.33 8.33 0 0 1 2.74 2.63v-3.3H386v17.88a8.18 8.18 0 0 1-2.97 6.52 9.78 9.78 0 0 1-3.32 1.75c-1.29.4-2.69.61-4.2.61-2.07 0-3.8-.34-5.2-1.02a10.53 10.53 0 0 1-3.63-2.89l2.63-2.54a7.5 7.5 0 0 0 2.72 2.08 8.24 8.24 0 0 0 5.62.45 5.2 5.2 0 0 0 1.82-.95c.53-.43.95-.98 1.25-1.65.3-.67.45-1.46.45-2.36v-2.37a6.37 6.37 0 0 1-2.64 2.5 7.8 7.8 0 0 1-3.63.87 7.8 7.8 0 0 1-3.46-.75 8.35 8.35 0 0 1-2.69-2.06 9.38 9.38 0 0 1-1.75-3.03c-.4-1.14-.61-2.36-.61-3.65 0-1.36.22-2.63.65-3.8a9.84 9.84 0 0 1 1.8-3.08 8.19 8.19 0 0 1 6.34-2.83Zm-55.15 0c2.72 0 4.82.67 6.33 2 1.5 1.32 2.25 3.23 2.25 5.74v5.84c0 .5.09.86.27 1.07.18.22.47.34.88.36v4.08c-.81.17-1.52.25-2.12.25-.92 0-1.62-.2-2.11-.6-.5-.41-.8-.95-.92-1.62l-.1-1.03a8.38 8.38 0 0 1-3.07 2.5c-1.2.57-2.5.86-3.86.86-.91 0-1.77-.15-2.56-.45a5.82 5.82 0 0 1-3.4-3.13 5.66 5.66 0 0 1 .1-4.82c.4-.75.95-1.39 1.66-1.91.71-.53 1.56-.94 2.54-1.24.99-.3 2.07-.45 3.25-.45.84 0 1.66.07 2.47.22.8.14 1.51.34 2.14.6v-1.07c0-1.24-.36-2.2-1.06-2.86-.71-.67-1.76-1-3.16-1-1 0-2 .17-2.95.53-.96.36-1.95.89-2.96 1.58l-1.47-3.05a14 14 0 0 1 7.85-2.4Zm34.38 0c2.72 0 4.83.67 6.33 2 1.5 1.32 2.25 3.23 2.25 5.74v5.84c0 .5.1.86.27 1.07.18.22.48.34.89.36v4.08c-.82.17-1.53.25-2.13.25-.91 0-1.62-.2-2.11-.6-.5-.41-.8-.95-.92-1.62l-.1-1.03a8.38 8.38 0 0 1-3.07 2.5c-1.2.57-2.49.86-3.86.86-.91 0-1.76-.15-2.56-.45a5.82 5.82 0 0 1-3.4-3.13 5.66 5.66 0 0 1 .1-4.82c.4-.75.96-1.39 1.66-1.91.71-.53 1.56-.94 2.55-1.24.98-.3 2.06-.45 3.24-.45.84 0 1.66.07 2.47.22.8.14 1.52.34 2.14.6v-1.07c0-1.24-.35-2.2-1.06-2.86-.71-.67-1.76-1-3.15-1-1.01 0-2 .17-2.96.53s-1.95.89-2.96 1.58l-1.47-3.05a14 14 0 0 1 7.85-2.4Zm44.73 0c1.54 0 2.91.27 4.13.8a8.97 8.97 0 0 1 5.05 5.2 10.19 10.19 0 0 1 .64 4.53c-.01.29-.04.53-.09.72h-14.6c.08.74.26 1.4.55 1.97a4.87 4.87 0 0 0 4.47 2.72c.96 0 1.86-.23 2.72-.7a3.7 3.7 0 0 0 1.74-1.84l4.15 1.15a8.37 8.37 0 0 1-3.33 3.52 10.37 10.37 0 0 1-5.46 1.38c-1.52 0-2.89-.26-4.11-.77a9.4 9.4 0 0 1-5.84-8.86c0-1.34.22-2.6.68-3.78A9.2 9.2 0 0 1 395 11.7c1.24-.52 2.62-.79 4.16-.79ZM297.74 4.41c2.4 0 4.46.5 6.18 1.5 1.72 1 3.01 2.35 3.88 4.05l-3.71 2.72a6.87 6.87 0 0 0-2.73-2.9 7.5 7.5 0 0 0-3.8-1c-1.08 0-2.07.22-2.97.67a6.97 6.97 0 0 0-2.3 1.87 8.75 8.75 0 0 0-1.49 2.72 10.06 10.06 0 0 0 .06 6.6 8.55 8.55 0 0 0 1.58 2.71 7.34 7.34 0 0 0 2.4 1.8c.92.45 1.93.67 3.01.67 2.47 0 4.7-1.16 6.7-3.47v-1.8h-5.15v-3.61h9.26v13.07h-4.1v-2.86a9.8 9.8 0 0 1-7.14 3.04c-1.68 0-3.26-.33-4.74-1a11.98 11.98 0 0 1-3.86-2.76 13.66 13.66 0 0 1-2.6-14.2 12.57 12.57 0 0 1 6.58-6.8 11.87 11.87 0 0 1 4.94-1.02ZM344 10.99c.13 0 .26.02.38.04v4.37c-1.47.02-2.78.3-3.93.84a4.94 4.94 0 0 0-2.49 2.42V30h-4.83V11.25h4.44v4a8.5 8.5 0 0 1 2.66-3.07 6.79 6.79 0 0 1 1.6-.88c.55-.2 1.07-.3 1.58-.3h.59Zm-24.02 10.07c-1.25 0-2.27.28-3.06.84a2.56 2.56 0 0 0-.25 4.15c.62.54 1.39.81 2.3.81.82 0 1.6-.14 2.32-.43.74-.29 1.3-.67 1.72-1.15.53-.4.79-.85.79-1.36v-2.14a12 12 0 0 0-3.82-.72Zm34.38 0c-1.25 0-2.27.28-3.06.84a2.56 2.56 0 0 0-.25 4.15c.62.54 1.39.81 2.3.81.82 0 1.6-.14 2.33-.43s1.3-.67 1.71-1.15c.53-.4.8-.85.8-1.36v-2.14a12 12 0 0 0-3.83-.72ZM376.24 15a4.2 4.2 0 0 0-2.02.48c-.6.32-1.12.75-1.55 1.29a5.78 5.78 0 0 0-.99 1.84 6.8 6.8 0 0 0-.34 2.15 5.75 5.75 0 0 0 1.5 3.9 4.87 4.87 0 0 0 6.54.68c.4-.28.76-.61 1.08-1 .3-.38.55-.78.72-1.21v-4.48a5.83 5.83 0 0 0-2.04-2.65c-.92-.67-1.9-1-2.9-1Zm22.85-.61a4.84 4.84 0 0 0-4.87 4.65h9.8a4.82 4.82 0 0 0-4.94-4.66Z" fill="#FFF"/><path d="M14.59 0a10.74 10.74 0 0 1 7.77 3.2c.95.98 1.67 2.12 2.17 3.42.5 1.3.76 2.67.76 4.1 0 1.41-.25 2.78-.76 4.08a10.08 10.08 0 0 1-3.6 4.65c1.78.9 3.31 2.1 4.6 3.59a16.37 16.37 0 0 1 3.04 5.39c.04.12.45 1.28.6 3.08h-4.3c-.55-3.84-3.95-8.1-7.35-9.2l-.4-.11c-.13-.04-.26-.09-.4-.12a8.88 8.88 0 0 0-4.05-.03c-3.85.8-7.95 5.27-8.44 9.43L0 31.5c.15-1.8.6-2.97.64-3.08.7-2.06 1.72-3.85 3.04-5.4a15 15 0 0 1 4.75-3.67l-.2.1a9.9 9.9 0 0 1-3.59-4.66c-.5-1.3-.75-2.67-.75-4.09s.25-2.78.75-4.09A10.14 10.14 0 0 1 10.2.87C11.5.3 12.97 0 14.6 0Zm0 3.72c-.85 0-1.65.18-2.4.55-.77.37-1.42.87-1.98 1.5a7.51 7.51 0 0 0-1.83 4.98c0 1 .16 1.92.48 2.77.32.84.76 1.57 1.31 2.2.56.61 1.22 1.1 1.97 1.45.76.36 1.57.54 2.45.54.87 0 1.69-.18 2.44-.54A6.02 6.02 0 0 0 19 15.7c.56-.63 1-1.37 1.31-2.21.32-.85.48-1.77.48-2.77 0-.97-.16-1.89-.48-2.75a7.03 7.03 0 0 0-1.3-2.23 5.68 5.68 0 0 0-4.41-2.02ZM272.3 2.98a3.94 3.94 0 0 0-2.22-.69c-1.14 0-2.02.52-2.74 1.4-.4.49-.76 1.48-.84 2.94l.02 4.81-.86.51-.85-.5.02-4.82c-.08-1.46-.43-2.45-.84-2.94a3.43 3.43 0 0 0-2.74-1.4c-.79 0-1.53.23-2.22.69a11.83 11.83 0 0 0-.5 19.4l-.05 9.8h3.82l.08-11.96a8.07 8.07 0 0 1-1.21-14.09c.04-.02 0 7.59 0 7.59l4.5 2.37 4.5-2.37s-.05-7.61 0-7.59a8.07 8.07 0 0 1-1.21 14.09l.07 11.95h3.82l-.06-9.8a11.82 11.82 0 0 0-.5-19.4M133.38 27.64c0-.01-7.24-9.86-7.24-15.22a8.44 8.44 0 0 1 2.13-5.7 7.3 7.3 0 0 1 2.3-1.71 6.44 6.44 0 0 1 5.62 0c.88.42 1.65 1 2.3 1.72a8.4 8.4 0 0 1 2.14 5.69c0 5.36-7.24 15.21-7.25 15.22m10.47-19.78a11.15 11.15 0 0 0-5.84-6.4 10.79 10.79 0 0 0-4.63-.98 10.8 10.8 0 0 0-8.19 3.57 11.39 11.39 0 0 0-2.28 3.8 13.2 13.2 0 0 0-.8 4.57c0 1.58.33 3.08.8 4.55 2.6 8.11 10.47 17.28 10.47 17.28s7.88-9.17 10.47-17.28c.47-1.47.8-2.97.8-4.55 0-1.59-.27-3.11-.8-4.56" fill="#CEF0FF"/><path d="M133.38 15.74a3.52 3.52 0 0 0 3.53-3.51 3.52 3.52 0 0 0-3.53-3.51 3.52 3.52 0 0 0-3.53 3.5 3.52 3.52 0 0 0 3.53 3.52" fill="#00AFFF"/></g></svg>
