<?xml version="1.0" encoding="UTF-8"?>
<svg width="64px" height="64px" viewBox="0 0 64 64" version="1.1" xmlns="http://www.w3.org/2000/svg" xmlns:xlink="http://www.w3.org/1999/xlink">
    <title>Icons / Vehicle / Alloy Wheel</title>
    <defs>
        <filter color-interpolation-filters="auto" id="filter-1">
            <feColorMatrix in="SourceGraphic" type="matrix" values="0 0 0 0 0.156863 0 0 0 0 0.203922 0 0 0 0 0.325490 0 0 0 1.000000 0"></feColorMatrix>
        </filter>
    </defs>
    <g id="Icons-/-Vehicle-/-Alloy-Wheel" stroke="none" stroke-width="1" fill="none" fill-rule="evenodd" stroke-linecap="round" stroke-linejoin="round">
        <g filter="url(#filter-1)" id="Group-57">
            <g transform="translate(8.000000, 8.000000)">
                <path d="M31.0186133,41.0140267 C28.8557689,41.9071822 26.4854578,42.3999822 23.9999467,42.3999822 C21.5146133,42.3999822 19.1441244,41.9071822 16.98128,41.0140267 L20.7999467,33.3759822 C21.6929244,31.6254044 22.2326578,30.1759822 23.9999467,30.1759822 C25.7672356,30.1759822 26.3071467,31.6254044 27.1999467,33.3759822 L31.0186133,41.0140267 Z" id="Stroke-69" stroke="#50505A" stroke-width="2.475"></path>
                <path d="M42.33664,22.46176 C42.3785956,22.96896 42.3999289,23.4820267 42.3999289,24.0000711 C42.3999289,28.4459378 40.8232178,32.5234489 38.1983289,35.7040711 L32.1412622,29.7858489 C30.7522844,28.3958044 29.5405511,27.43456 30.0866844,25.7536711 C30.6329956,24.07296 32.17824,24.0075378 34.11904,23.6990933 L42.33664,22.46176 Z" id="Stroke-71" stroke="#50505A" stroke-width="2.475"></path>
                <path d="M28.3839467,6.12547556 C33.0431467,7.26432 37.0063467,10.1772089 39.51728,14.1076978 L32.2315911,17.8902756 C30.4803022,18.7816533 29.1915911,19.63712 27.7619022,18.5983644 C26.3320356,17.5594311 26.7473244,16.0696533 27.0538133,14.1284978 L28.3839467,6.12547556 Z" id="Stroke-73" stroke="#50505A" stroke-width="2.475"></path>
                <path d="M9.82300444,35.7299556 C7.18531556,32.5456 5.60007111,28.4579556 5.60007111,24 C5.60007111,23.4819556 5.62140444,22.9688889 5.66336,22.4616889 L13.88096,23.6992 C15.82176,24.0074667 17.3671822,24.0728889 17.9133156,25.7537778 C18.4594489,27.4344889 17.2477156,28.3957333 15.8587378,29.7859556 L9.82300444,35.7299556 Z" id="Stroke-75" stroke="#50505A" stroke-width="2.475"></path>
                <path d="M8.48259556,14.1078044 C10.9935289,10.1773156 14.9567289,7.26424889 19.6159289,6.12540444 L20.9460622,14.1284267 C21.2527289,16.0695822 21.6680178,17.5595378 20.2381511,18.5982933 C18.8084622,19.6370489 17.5197511,18.78176 15.7684622,17.8903822 L8.48259556,14.1078044 Z" id="Stroke-77" stroke="#50505A" stroke-width="2.475"></path>
                <path d="M48,24 C48,37.2547556 37.2547556,48 24,48 C10.7452444,48 0,37.2547556 0,24 C0,10.7452444 10.7452444,0 24,0 C37.2547556,0 48,10.7452444 48,24 Z" id="Stroke-79" stroke="#50505A" stroke-width="2.475"></path>
                <line x1="23.9839822" y1="24" x2="24.0159822" y2="24" id="Stroke-81" stroke="#50505A" stroke-width="2.475"></line>
            </g>
        </g>
    </g>
</svg>
