<?xml version="1.0" encoding="UTF-8"?>
<svg width="64px" height="64px" viewBox="0 0 64 64" version="1.1" xmlns="http://www.w3.org/2000/svg" xmlns:xlink="http://www.w3.org/1999/xlink">
    <title>Icons / Vehicle / Automatic Gearbox</title>
    <defs>
        <filter color-interpolation-filters="auto" id="filter-1">
            <feColorMatrix in="SourceGraphic" type="matrix" values="0 0 0 0 0.156863 0 0 0 0 0.203922 0 0 0 0 0.325490 0 0 0 1.000000 0"></feColorMatrix>
        </filter>
    </defs>
    <g id="Icons-/-Vehicle-/-Automatic-Gearbox" stroke="none" stroke-width="1" fill="none" fill-rule="evenodd" stroke-linecap="round" stroke-linejoin="round">
        <g filter="url(#filter-1)" id="Group-33">
            <g transform="translate(14.000000, 8.000000)">
                <line x1="0.0899616675" y1="9.71846044" x2="0.0899616675" y2="1.61974341" id="Stroke-315" stroke="#50505A" stroke-width="2.5"></line>
                <path d="M0.0899616675,6.47897363 L2.51892669,6.47897363 C3.86043507,6.47897363 4.94789171,5.39122594 4.94789171,4.04935852 C4.94789171,2.70749109 3.86043507,1.61974341 2.51892669,1.61974341 L0.0899616675,1.61974341" id="Stroke-316" stroke="#50505A" stroke-width="2.5"></path>
                <line x1="2.51892669" y1="19.4369209" x2="0.0899616675" y2="19.4369209" id="Stroke-317" stroke="#50505A" stroke-width="2.5"></line>
                <path d="M4.94789171,22.6764077 L2.51892669,19.4369209 C3.86043507,19.4369209 4.94789171,18.3491732 4.94789171,17.0073058 C4.94789171,15.6654383 3.86043507,14.5776907 2.51892669,14.5776907 L0.0899616675,14.5776907 L0.0899616675,22.6764077" id="Stroke-318" stroke="#50505A" stroke-width="2.5"></path>
                <polyline id="Stroke-319" stroke="#50505A" stroke-width="2.5" points="0.0899616675 35.634355 0.0899616675 27.5356379 0.170927168 27.5356379 4.86692621 35.634355 4.94789171 35.634355 4.94789171 27.5356379"></polyline>
                <path d="M0.0899616675,48.5923022 L0.0899616675,40.4935852 L2.51892669,40.4935852 C3.86043507,40.4935852 4.94789171,41.5813329 4.94789171,42.9232003 L4.94789171,46.1626871 C4.94789171,47.5045545 3.86043507,48.5923022 2.51892669,48.5923022 L0.0899616675,48.5923022 Z" id="Stroke-320" stroke="#50505A" stroke-width="2.5"></path>
                <path d="M13.0444418,29.1553813 C13.0444418,30.9459177 14.4930046,32.3948681 16.2830618,32.3948681 L32.476162,32.3948681 C34.2662192,32.3948681 35.714782,30.9459177 35.714782,29.1553813 L35.714782,25.9158945 C35.714782,24.1253582 34.2662192,22.6764077 32.476162,22.6764077 L16.2830618,22.6764077 C14.4930046,22.6764077 13.0444418,24.1253582 13.0444418,25.9158945 L13.0444418,29.1553813 Z" id="Stroke-321" stroke="#50505A" stroke-width="2.5"></path>
                <path d="M16.2830618,32.3948681 L16.2830618,45.3528154 C16.2830618,47.1433517 17.7316246,48.5923022 19.5216818,48.5923022 L29.2375419,48.5923022 C31.0275992,48.5923022 32.476162,47.1433517 32.476162,45.3528154 L32.476162,32.3948681" id="Stroke-322" stroke="#50505A" stroke-width="2.5"></path>
                <path d="M32.476162,22.6764077 L32.476162,3.23948681 C32.476162,1.44895046 31.0275992,0 29.2375419,0 L19.5216818,0 C17.7316246,0 16.2830618,1.44895046 16.2830618,3.23948681 L16.2830618,22.6764077" id="Stroke-323" stroke="#50505A" stroke-width="2.5"></path>
                <line x1="24.3796119" y1="22.6764077" x2="24.3796119" y2="6.47897363" id="Stroke-324" stroke="#50505A" stroke-width="2.5"></line>
                <line x1="24.3796119" y1="32.3948681" x2="24.3796119" y2="42.1133286" id="Stroke-325" stroke="#50505A" stroke-width="2.5"></line>
            </g>
        </g>
    </g>
</svg>
