<?xml version="1.0" encoding="UTF-8"?>
<svg width="64px" height="64px" viewBox="0 0 64 64" version="1.1" xmlns="http://www.w3.org/2000/svg" xmlns:xlink="http://www.w3.org/1999/xlink">
    <title>Icons / Vehicle / Cambelt</title>
    <defs>
        <filter color-interpolation-filters="auto" id="filter-1">
            <feColorMatrix in="SourceGraphic" type="matrix" values="0 0 0 0 0.156863 0 0 0 0 0.203922 0 0 0 0 0.325490 0 0 0 1.000000 0"></feColorMatrix>
        </filter>
    </defs>
    <g id="Icons-/-Vehicle-/-Cambelt" stroke="none" stroke-width="1" fill="none" fill-rule="evenodd" stroke-linecap="round" stroke-linejoin="round">
        <g filter="url(#filter-1)" id="Group-20">
            <g transform="translate(8.000000, 8.000000)">
                <path d="M19.3503948,19.3554388 C14.923741,23.7832774 7.74677911,23.7832774 3.3201253,19.3554388 C-1.10670843,14.9276002 -1.10670843,7.74871748 3.3201253,3.32087892 C7.74677911,-1.10695964 14.923741,-1.10695964 19.3503948,3.32087892 C23.7770486,7.74871748 23.7770486,14.9276002 19.3503948,19.3554388 Z" id="Stroke-404" stroke="#50505A" stroke-width="2.5"></path>
                <path d="M14.5738441,11.3381229 C14.5738441,13.1272194 13.123842,14.5776097 11.3352241,14.5776097 C9.54660621,14.5776097 8.09660405,13.1272194 8.09660405,11.3381229 C8.09660405,9.54902628 9.54660621,8.09863605 11.3352241,8.09863605 C13.123842,8.09863605 14.5738441,9.54902628 14.5738441,11.3381229 Z" id="Stroke-405" stroke="#50505A" stroke-width="2.5"></path>
                <path d="M27.7247825,47.1689887 C25.8276709,49.0666081 22.7517015,49.0666081 20.8545899,47.1689887 C18.9574782,45.2713693 18.9574782,42.1945767 20.8545899,40.2969573 C22.7517015,38.3993379 25.8276709,38.3993379 27.7247825,40.2969573 C29.6218942,42.1945767 29.6218942,45.2713693 27.7247825,47.1689887 Z" id="Stroke-406" stroke="#50505A" stroke-width="2.5"></path>
                <path d="M48.5793544,21.0565833 C48.5793544,25.5294147 44.954439,29.1553003 40.4828043,29.1553003 C36.0111697,29.1553003 32.3862543,25.5294147 32.3862543,21.0565833 C32.3862543,16.5837519 36.0111697,12.9578663 40.4828043,12.9578663 C44.954439,12.9578663 48.5793544,16.5837519 48.5793544,21.0565833 Z" id="Stroke-407" stroke="#50505A" stroke-width="2.5"></path>
                <line x1="40.4666112" y1="21.0565833" x2="40.4989974" y2="21.0565833" id="Stroke-408" stroke="#50505A" stroke-width="2.5"></line>
                <line x1="24.2735111" y1="43.732991" x2="24.3058973" y2="43.732991" id="Stroke-409" stroke="#50505A" stroke-width="2.5"></line>
                <line x1="1.51428876" y1="17.0040393" x2="20.3002641" y2="46.5073055" id="Stroke-410" stroke="#50505A" stroke-width="2.5"></line>
                <line x1="28.0092593" y1="46.8590778" x2="46.5467605" y2="26.4229552" id="Stroke-411" stroke="#50505A" stroke-width="2.5"></line>
                <line x1="43.4705393" y1="13.527548" x2="15.7799782" y2="0.90470768" id="Stroke-412" stroke="#50505A" stroke-width="2.5"></line>
            </g>
        </g>
    </g>
</svg>
