<?xml version="1.0" encoding="UTF-8"?>
<svg width="64px" height="64px" viewBox="0 0 64 64" version="1.1" xmlns="http://www.w3.org/2000/svg" xmlns:xlink="http://www.w3.org/1999/xlink">
    <title>Icons / Vehicle / Car on Ramp</title>
    <g id="Icons-/-Vehicle-/-Car-on-Ramp" stroke="none" stroke-width="1" fill="none" fill-rule="evenodd" stroke-linecap="round" stroke-linejoin="round">
        <g id="Group-2" transform="translate(6.000000, 10.000000)" stroke="#50505A" stroke-width="2.1">
            <g id="Group" transform="translate(0.000000, 0.090909)">
                <rect id="Rectangle-Copy-6" x="0" y="40.9605696" width="11.0416667" height="3.70646221"></rect>
                <rect id="Rectangle-Copy-7" x="2.20833333" y="0" width="6.625" height="40.3636364"></rect>
                <rect id="Rectangle-Copy-8" x="12.1458333" y="22.8181818" width="6.625" height="3.27272727"></rect>
                <rect id="Rectangle-Copy-9" x="34.2291667" y="22.8181818" width="6.625" height="3.27272727"></rect>
                <rect id="Rectangle-Copy-10" x="44.1666667" y="0" width="6.625" height="40.3636364"></rect>
                <rect id="Rectangle-Copy-11" x="42" y="40.9605696" width="11.0416667" height="3.70646221"></rect>
                <line x1="41.40625" y1="24.4545455" x2="50.7916667" y2="24.3009001" id="Path-2-Copy-2"></line>
                <line x1="2.76041667" y1="24.4545455" x2="11.59375" y2="24.4545455" id="Path-2-Copy-3"></line>
            </g>
            <g id="Group-62-Copy" transform="translate(12.697917, 0.000000)">
                <path d="M19.875,18.5454545 C19.875,16.7365455 18.3228396,15.2727273 16.4047619,15.2727273 L11.1994048,15.2727273 C9.28132705,15.2727273 7.72916667,16.7365455 7.72916667,18.5454545" id="Stroke-457"></path>
                <path d="M23.1875,6.54545455 L21.4810606,1.63636364 C21.2367554,0.888727273 18.0464721,0 13.8020833,0 C9.55769455,0 6.3674113,0.888727273 6.12310606,1.63636364 L4.41666667,6.54545455" id="Stroke-458"></path>
                <path d="M23.1875,6.54545455 C23.1875,7.74813894 18.9897539,7.63341912 13.8020833,7.63341912 C8.61441277,7.63341912 4.41666667,7.74813894 4.41666667,6.54545455" id="Stroke-459"></path>
                <path d="M1.10416667,14.1818182 L4.5546875,14.1818182 C4.93616175,14.1818182 5.24479167,13.8165888 5.24479167,13.3651563 C5.24479167,11.5596075 4.01011863,10.9151705 2.484375,10.9151705 L1.53931568,10.9090909" id="Stroke-460"></path>
                <path d="M26.5,14.1818182 L23.0494792,14.1818182 C22.6680049,14.1818182 22.359375,13.8159091 22.359375,13.3636364 C22.359375,11.5547273 23.594048,10.9090909 25.1197917,10.9090909 L26.0673814,10.9090909" id="Stroke-461"></path>
                <path d="M3.68055556,6.54545455 L0.920138889,6.54545455 C0.411506559,6.54545455 0,6.9520202 0,7.45454545 L0,8.36363636 C0,9.36858586 0.823115355,10.1818182 1.84027778,10.1818182 L1.84027778,10.2727273 C0,12.0909091 0,13.8181818 0,15.6363636 L0,22 C0,22.5025253 0.411506559,22.9090909 0.920138889,22.9090909 L4.60069444,22.9090909 C5.10932677,22.9090909 5.52083333,22.5025253 5.52083333,22 L5.52083333,19.2727273 L22.0833333,19.2727273 L22.0833333,22 C22.0833333,22.5025253 22.4948399,22.9090909 23.0034722,22.9090909 L26.6840278,22.9090909 C27.1926601,22.9090909 27.6041667,22.5025253 27.6041667,22 L27.6041667,14.7272727 L27.6041667,15.6363636 C27.6041667,13.8181818 27.6041667,12.0909091 25.7638889,10.2727273 L25.7638889,10.1818182 C26.7810513,10.1818182 27.6041667,9.36858586 27.6041667,8.36363636 L27.6041667,7.45454545 C27.6041667,6.9520202 27.1926601,6.54545455 26.6840278,6.54545455 L23.9236111,6.54545455" id="Stroke-462"></path>
            </g>
        </g>
    </g>
</svg>
