<?xml version="1.0" encoding="UTF-8"?>
<svg width="64px" height="64px" viewBox="0 0 64 64" version="1.1" xmlns="http://www.w3.org/2000/svg" xmlns:xlink="http://www.w3.org/1999/xlink">
    <title>Icons / Vehicle / Car</title>
    <defs>
        <filter color-interpolation-filters="auto" id="filter-1">
            <feColorMatrix in="SourceGraphic" type="matrix" values="0 0 0 0 0.156863 0 0 0 0 0.203922 0 0 0 0 0.325490 0 0 0 1.000000 0"></feColorMatrix>
        </filter>
    </defs>
    <g id="Icons-/-Vehicle-/-Car" stroke="none" stroke-width="1" fill="none" fill-rule="evenodd" stroke-linecap="round" stroke-linejoin="round">
        <g filter="url(#filter-1)" id="Group-62">
            <g transform="translate(8.000000, 12.000000)">
                <path d="M35.2,34.6923077 C35.2,31.205906 32.3374222,28.3846154 28.8,28.3846154 L19.2,28.3846154 C15.6625778,28.3846154 12.8,31.205906 12.8,34.6923077" id="Stroke-457" stroke="#50505A" stroke-width="2.475"></path>
                <path d="M41.6,12.6153846 L38.4,3.15384615 C37.9418667,1.71288889 31.9592889,0 24,0 C16.0407111,0 10.0581333,1.71288889 9.6,3.15384615 L6.4,12.6153846" id="Stroke-458" stroke="#50505A" stroke-width="2.475"></path>
                <path d="M41.6,12.6153846 C41.6,16.1017863 33.7281778,15.7692308 24,15.7692308 C14.2718222,15.7692308 6.4,16.1017863 6.4,12.6153846" id="Stroke-459" stroke="#50505A" stroke-width="2.475"></path>
                <path d="M0,28.3846154 L8,28.3846154 C8.88444444,28.3846154 9.6,27.6793803 9.6,26.8076923 C9.6,23.3212906 6.73742222,22.0769231 3.2,22.0769231 L1.00888889,22.0651838" id="Stroke-460" stroke="#50505A" stroke-width="2.475"></path>
                <path d="M48,28.3846154 L40,28.3846154 C39.1155556,28.3846154 38.4,27.6793803 38.4,26.8076923 C38.4,23.3212906 41.2625778,22.0769231 44.8,22.0769231 L46.9969778,22.0769231" id="Stroke-461" stroke="#50505A" stroke-width="2.475"></path>
                <path d="M6.4,12.6153846 L1.6,12.6153846 C0.715555556,12.6153846 0,13.3206197 0,14.1923077 L0,15.7692308 C0,17.5124316 1.43128889,18.9230769 3.2,18.9230769 L3.2,19.0807692 C0,22.2346154 0,25.2307692 0,28.3846154 L0,39.4230769 C0,40.294765 0.715555556,41 1.6,41 L8,41 C8.88444444,41 9.6,40.294765 9.6,39.4230769 L9.6,34.6923077 L38.4,34.6923077 L38.4,39.4230769 C38.4,40.294765 39.1155556,41 40,41 L46.4,41 C47.2844444,41 48,40.294765 48,39.4230769 L48,26.8076923 L48,28.3846154 C48,25.2307692 48,22.2346154 44.8,19.0807692 L44.8,18.9230769 C46.5687111,18.9230769 48,17.5124316 48,15.7692308 L48,14.1923077 C48,13.3206197 47.2844444,12.6153846 46.4,12.6153846 L41.6,12.6153846" id="Stroke-462" stroke="#50505A" stroke-width="2.475"></path>
            </g>
        </g>
    </g>
</svg>
