<svg width="64" height="64" xmlns="http://www.w3.org/2000/svg"><defs><filter color-interpolation-filters="auto" id="a"><feColorMatrix in="SourceGraphic" values="0 0 0 0 0.156863 0 0 0 0 0.203922 0 0 0 0 0.325490 0 0 0 1.000000 0"/></filter></defs><g filter="url(#a)" fill="none" fill-rule="evenodd" stroke-linecap="round" stroke-linejoin="round"><g stroke="#50505A" stroke-width="2.475"><path d="M43.2 46.6923c0-3.4864-2.8626-6.3077-6.4-6.3077h-9.6c-3.5374 0-6.4 2.8213-6.4 6.3077M49.6 24.6154l-3.2-9.4616C45.9419 13.7128 39.9593 12 32 12c-7.9593 0-13.9419 1.7129-14.4 3.1538l-3.2 9.4616M49.6 24.6154c0 3.4864-7.8718 3.1538-17.6 3.1538-9.7282 0-17.6.3326-17.6-3.1538M8 40.3846h8c.8844 0 1.6-.7052 1.6-1.577 0-3.4863-2.8626-4.7307-6.4-4.7307l-2.1911-.0117M56 40.3846h-8c-.8844 0-1.6-.7052-1.6-1.577 0-3.4863 2.8626-4.7307 6.4-4.7307h2.197"/><path d="M14.4 24.6154H9.6c-.8844 0-1.6.7052-1.6 1.577v1.5768c0 1.7432 1.4313 3.1539 3.2 3.1539v.1577C8 34.2346 8 37.2308 8 40.3846v11.0385C8 52.2948 8.7156 53 9.6 53H16c.8844 0 1.6-.7052 1.6-1.577v-4.7307h28.8v4.7308C46.4 52.2948 47.1156 53 48 53h6.4c.8844 0 1.6-.7052 1.6-1.577V38.8078v1.577c0-3.154 0-6.15-3.2-9.304v-.1576c1.7687 0 3.2-1.4107 3.2-3.1539v-1.5769c0-.8717-.7156-1.577-1.6-1.577h-4.8"/></g></g></svg>
