<?xml version="1.0" encoding="UTF-8"?>
<svg width="64px" height="64px" viewBox="0 0 64 64" version="1.1" xmlns="http://www.w3.org/2000/svg" xmlns:xlink="http://www.w3.org/1999/xlink">
    <title>Icons / Vehicle / Chasis</title>
    <defs>
        <filter color-interpolation-filters="auto" id="filter-1">
            <feColorMatrix in="SourceGraphic" type="matrix" values="0 0 0 0 0.156863 0 0 0 0 0.203922 0 0 0 0 0.325490 0 0 0 1.000000 0"></feColorMatrix>
        </filter>
    </defs>
    <g id="Icons-/-Vehicle-/-Chasis" stroke="none" stroke-width="1" fill="none" fill-rule="evenodd" stroke-linecap="round" stroke-linejoin="round">
        <g filter="url(#filter-1)" id="Group-42">
            <g transform="translate(8.000000, 21.000000)">
                <line x1="12.9544801" y1="9.71846044" x2="42.1020604" y2="9.71846044" id="Stroke-300" stroke="#50505A" stroke-width="2.5"></line>
                <line x1="30.7668903" y1="0" x2="30.7668903" y2="9.71846044" id="Stroke-301" stroke="#50505A" stroke-width="2.5"></line>
                <path d="M3.23862003,12.9579473 L12.9544801,9.71846044 L19.4317202,3.23948681 C21.1015886,1.56917142 22.3288457,2.84217094e-14 25.9089602,2.84217094e-14 L36.4344753,2.84217094e-14 C38.2245326,2.84217094e-14 39.4032103,1.61974341 39.9429804,3.23948681 L42.1020604,9.71846044 L48.5793004,12.9579473 L48.5793004,19.4369209 C48.5793004,21.2274572 47.1307377,22.6764077 45.3406804,22.6764077 L43.7213704,22.6764077 C43.7213704,19.9926728 41.5464571,17.8171775 38.8634403,17.8171775 C36.1804236,17.8171775 34.0055103,19.9926728 34.0055103,22.6764077 L14.5737901,22.6764077 C14.5737901,19.9926728 12.3988769,17.8171775 9.71586009,17.8171775 C7.03284332,17.8171775 4.85793004,19.9926728 4.85793004,22.6764077 L3.23862003,22.6764077 C1.44856277,22.6764077 0,21.2274572 0,19.4369209 L0,16.1974341 C0,14.4068977 1.39062746,13.6121436 3.23862003,12.9579473 Z" id="Stroke-302" stroke="#50505A" stroke-width="2.5"></path>
            </g>
        </g>
    </g>
</svg>
