<?xml version="1.0" encoding="UTF-8"?>
<svg width="64px" height="64px" viewBox="0 0 64 64" version="1.1" xmlns="http://www.w3.org/2000/svg" xmlns:xlink="http://www.w3.org/1999/xlink">
    <title>Icons / Vehicle / Checklist</title>
    <g id="Icons-/-Vehicle-/-Checklist" stroke="none" stroke-width="1" fill="none" fill-rule="evenodd" stroke-linecap="round" stroke-linejoin="round">
        <g id="Group-24-Copy" transform="translate(14.000000, 5.000000)" stroke="#283453" stroke-width="2.6">
            <path d="M34.1538462,5.86380753 C35.7269786,5.86380753 37,7.23952044 37,8.93955369 L37,8.93955369 L37,48.9242538 C37,50.6242871 35.7269786,52 34.1538462,52 L34.1538462,52 L2.84615385,52 C1.27302137,52 0,50.6242871 0,48.9242538 L0,48.9242538 L0,8.93955369 C0,7.23952044 1.27302137,5.86380753 2.84615385,5.86380753 L2.84615385,5.86380753 L8.169,5.86349064 L8.16977453,9.43694846 L28.7253301,9.43694846 L28.725,5.86349064 Z" id="Combined-Shape"></path>
            <path d="M18.4475523,0 C20.7180563,0 22.5586634,1.877807 22.5586634,4.19419932 L22.5586634,4.19419932 L28.7253301,4.19419932 L28.7253301,9.43694846 L8.16977453,9.43694846 L8.16977453,4.19419932 L14.3364412,4.19419932 C14.3364412,1.877807 16.1770483,0 18.4475523,0 Z" id="Combined-Shape"></path>
            <g id="Group" transform="translate(7.194444, 15.728247)">
                <line x1="6.16666667" y1="0.262137457" x2="22.6111111" y2="0.262137457" id="Stroke-335"></line>
                <line x1="0" y1="0.262137457" x2="1.02777778" y2="0.262137457" id="Stroke-335-Copy"></line>
                <line x1="6.16666667" y1="7.4174811" x2="22.6111111" y2="7.4174811" id="Stroke-336"></line>
                <line x1="0" y1="7.4174811" x2="1.02777778" y2="7.4174811" id="Stroke-336-Copy"></line>
                <line x1="6.16666667" y1="14.5728247" x2="22.6111111" y2="14.5728247" id="Stroke-337"></line>
                <line x1="0" y1="14.5728247" x2="1.02777778" y2="14.5728247" id="Stroke-337-Copy"></line>
                <line x1="6.16666667" y1="21.7281684" x2="22.6111111" y2="21.7281684" id="Stroke-338"></line>
                <line x1="0" y1="21.7281684" x2="1.02777778" y2="21.7281684" id="Stroke-338-Copy"></line>
                <line x1="6.16666667" y1="28.883512" x2="22.6111111" y2="28.883512" id="Stroke-340"></line>
                <line x1="0" y1="28.883512" x2="1.02777778" y2="28.883512" id="Stroke-340-Copy"></line>
            </g>
        </g>
    </g>
</svg>
