<?xml version="1.0" encoding="UTF-8"?>
<svg width="64px" height="64px" viewBox="0 0 64 64" version="1.1" xmlns="http://www.w3.org/2000/svg" xmlns:xlink="http://www.w3.org/1999/xlink">
    <title>Icons / Vehicle / Numberplate</title>
    <g id="Icons-/-Vehicle-/-Numberplate" stroke="none" stroke-width="1" fill="none" fill-rule="evenodd">
        <g id="Group" transform="translate(4.000000, 16.000000)" stroke="#50505A">
            <rect id="Rectangle" stroke-width="2.7225" stroke-linecap="round" stroke-linejoin="round" x="0" y="0" width="57" height="33" rx="4.4"></rect>
            <polygon id="Path" stroke-width="0.5" fill="#50505A" fill-rule="nonzero" points="14.4772003 11.1135603 14.4772003 13.1277204 9.45153061 13.1357771 9.48333865 15.7783552 13.0776467 15.7541853 13.0855987 17.800572 9.45153061 17.800572 9.46743463 22.3848005 7.43967235 22.3767439 7.39991231 11.1135603"></polygon>
            <polygon id="Path" stroke-width="0.5" fill="#50505A" fill-rule="nonzero" points="20.932111 11.0893903 22.9280652 11.0732771 22.9280652 22.3686872 20.924159 22.3686872 20.9003029 17.6797224 20.9003029 17.6636091 20.8923509 17.6394392 20.8923509 17.6152693 20.8843989 17.599156 20.8843989 17.5830427 20.8843989 17.5669294 20.8764469 17.5508161 20.8764469 17.5427595 20.8764469 17.5347028 20.8684949 17.5266462 20.8684949 17.5185896 20.8605429 17.5105329 20.8525909 17.5024763 20.8446389 17.4944196 20.8287349 17.4944196 20.8128308 17.486363 20.8048788 17.486363 20.7889748 17.4783064 20.7730708 17.486363 20.7571668 17.4944196 20.7492148 17.5105329 20.7333107 17.5266462 20.7174067 17.5508161 20.7015027 17.5830427 20.6935507 17.6152693 20.2005261 19.8389021 18.5226523 19.8389021 18.0137237 17.6233259 17.9978197 17.5910993 17.9898677 17.574986 17.9898677 17.5588728 17.9739636 17.5347028 17.9660116 17.5185896 17.9580596 17.5105329 17.9421556 17.5024763 17.9342036 17.4944196 17.9182996 17.486363 17.9023956 17.486363 17.8785395 17.4944196 17.8626355 17.5024763 17.8546835 17.5105329 17.8467315 17.5185896 17.8387795 17.5266462 17.8308275 17.5347028 17.8308275 17.5427595 17.8228755 17.5508161 17.8228755 17.5588728 17.8228755 17.574986 17.8149235 17.5910993 17.8149235 17.6072126 17.8069715 17.6313825 17.8069715 17.6555525 17.7990195 17.687779 17.8387795 22.3848005 15.8905373 22.3848005 15.8507773 11.1135603 17.8785395 11.1055036 19.3019491 16.1167341 19.3019491 16.1247907 19.3019491 16.1328474 19.3099011 16.140904 19.3099011 16.1570173 19.3178532 16.1731306 19.3178532 16.1892439 19.3258052 16.2134138 19.3337572 16.2295271 19.3417092 16.2456403 19.3496612 16.2617536 19.3655652 16.2778669 19.3735172 16.2859235 19.3894212 16.2939802 19.4053253 16.2939802 19.4291813 16.3020368 19.4450853 16.3020368 19.4530373 16.3020368 19.4609893 16.3020368 19.4689413 16.3020368 19.4689413 16.2939802 19.4768933 16.2939802 19.4848453 16.2939802 19.4927974 16.2859235 19.5007494 16.2778669 19.5087014 16.2698103 19.5166534 16.2617536 19.5166534 16.253697 19.5246054 16.2375837 19.5246054 16.2214704 19.5405094 16.1973005 19.5484614 16.1570173 19.5564134 16.140904 19.5643654 16.1247907"></polygon>
            <polygon id="Path" stroke-width="0.5" fill="#50505A" fill-rule="nonzero" points="34.420157 11.1296735 34.420157 11.4277693 34.412205 11.5727888 34.412205 11.7178083 34.404253 11.8628278 34.396301 12.0078474 34.380397 12.1448103 34.364493 12.2898298 34.340637 12.418736 34.3167809 12.5476423 34.3008769 12.6201521 34.2929249 12.6523786 34.2849729 12.6926618 34.2611169 12.7651716 34.2452129 12.7973982 34.2372608 12.8376814 34.2213568 12.8779646 34.2054528 12.9182478 34.1895488 12.958531 34.1736448 13.0068708 34.1577408 13.0310407 34.1497887 13.0552107 34.1338847 13.0874372 34.1179807 13.1196638 34.1100287 13.1438337 34.1020767 13.159947 34.0861727 13.2002302 34.0782207 13.2244001 34.0702687 13.24857 34.0543646 13.2646833 34.0464126 13.2969099 31.9232262 18.1792341 31.9470823 22.3928571 29.9749841 22.3928571 29.935224 18.203404 27.7404695 13.3130232 27.7166135 13.2646833 27.7007095 13.2244001 27.6848055 13.1760603 27.6689015 13.1438337 27.6529974 13.1035505 27.6370934 13.0793806 27.6291414 13.047154 27.6211894 13.0229841 27.6052854 12.9746443 27.5893814 12.934361 27.5655254 12.8940778 27.5575733 12.8537946 27.5257653 12.7812849 27.5178133 12.7490583 27.5019093 12.7087751 27.4860053 12.6362653 27.4701012 12.5637556 27.4462452 12.4348493 27.4303412 12.3059431 27.4064852 12.1609235 27.3985332 12.0239607 27.3826291 11.8789411 27.3826291 11.7339216 27.3746771 11.5889021 27.3746771 11.4438825 27.3746771 11.1296735 29.3388233 11.1296735 29.3388233 11.1780134 29.3388233 11.2263532 29.3388233 11.2746931 29.3388233 11.3230329 29.3388233 11.3633161 29.3388233 11.4035993 29.3388233 11.4438825 29.3388233 11.4761091 29.3388233 11.5083357 29.3388233 11.5405622 29.3388233 11.5727888 29.3388233 11.6050153 29.3388233 11.6291853 29.3388233 11.6614118 29.3388233 11.6855818 29.3467754 11.701695 29.3467754 11.7419782 29.3467754 11.7822614 29.3547274 11.8628278 29.3626794 11.9433943 29.3706314 11.9836775 29.3785834 12.0239607 29.3865354 12.0642439 29.3944874 12.1045271 29.4103914 12.1689802 29.4183434 12.2092634 29.4262954 12.2334333 29.4342474 12.2656599 29.4501515 12.2978864 29.4581035 12.3059431 29.4581035 12.3220564 29.4660555 12.3381696 29.4740075 12.3462263 29.4740075 12.3623396 29.4819595 12.3784528 29.4978635 12.4106794 29.5058155 12.4267927 29.5137675 12.4509626 29.5296716 12.4912458 29.5535276 12.5476423 29.5694316 12.5718122 29.5853356 12.6040388 29.5932876 12.6362653 29.6091916 12.6684919 30.8894651 15.6011091 32.2651626 12.4751325 32.2731146 12.4509626 32.2810666 12.4267927 32.2890187 12.4026228 32.2969707 12.3865095 32.3049227 12.3623396 32.3128747 12.3542829 32.3208267 12.3381696 32.3287787 12.3220564 32.3287787 12.3059431 32.3367307 12.2978864 32.3367307 12.2898298 32.3446827 12.2817732 32.3526347 12.2737165 32.3605867 12.24149 32.3685387 12.21732 32.3844428 12.1770368 32.3844428 12.1609235 32.3923948 12.1448103 32.3923948 12.128697 32.4003468 12.1125837 32.4082988 12.0803571 32.4162508 12.0400739 32.4242028 11.9997907 32.4321548 11.9595075 32.4321548 11.9514509 32.4321548 11.9433943 32.4401068 11.927281 32.4401068 11.8789411 32.4480588 11.8628278 32.4480588 11.8467146 32.4480588 11.8225446 32.4480588 11.8064314 32.4560108 11.7580915 32.4560108 11.725865 32.4560108 11.6775251 32.4560108 11.6614118 32.4560108 11.6372419 32.4560108 11.613072 32.4560108 11.5808454 32.4560108 11.5486189 32.4560108 11.5244489 32.4560108 11.4841657 32.4560108 11.4519392 32.4560108 11.4197126 32.4560108 11.3794294 32.4560108 11.3391462 32.4560108 11.298863 32.4560108 11.2505232 32.4560108 11.2021833 32.4639629 11.1296735"></polygon>
            <polygon id="Path" stroke-width="0.5" fill="#50505A" fill-rule="nonzero" points="37.7658323 20.3545271 42.839214 20.3384138 42.839214 22.3767439 35.769878 22.3848005 35.769878 11.1135603 37.7658323 11.1135603"></polygon>
            <path d="M48.3637396,13.1438337 L46.9641861,13.1438337 L46.884666,13.1438337 L46.8608099,13.1518903 L46.8130979,13.1518903 L46.7892419,13.159947 L46.7574338,13.1680036 L46.7335778,13.1760603 L46.7097218,13.1841169 L46.6540577,13.2002302 L46.6222497,13.2082868 L46.5983937,13.2244001 L46.5665856,13.2405134 L46.5347776,13.2566267 L46.5029695,13.27274 L46.4711615,13.2888532 L46.4154974,13.3210798 L46.3598334,13.361363 L46.3121213,13.4016462 L46.2723613,13.4419294 L46.2326012,13.4902693 L46.2007932,13.5305525 L46.1769372,13.5788923 L46.1610332,13.6272321 L46.1451291,13.6675153 L46.1292251,13.7158552 L46.1212731,13.7561384 L46.1133211,13.7964216 L46.1053691,13.8286482 L46.0974171,13.8689314 L46.0974171,13.9011579 L46.0974171,13.9333845 L46.0974171,13.9414411 L46.0894651,15.6897321 L48.8488122,15.6897321 L48.9044762,15.6897321 L48.9680923,15.6897321 L49.0317084,15.6977888 L49.0953245,15.7058454 L49.1589405,15.7139021 L49.2305086,15.7300153 L49.3020767,15.7461286 L49.4452129,15.7864118 L49.5167809,15.8025251 L49.596301,15.826695 L49.6599171,15.850865 L49.7314852,15.8830915 L49.8746213,15.939488 L49.9461894,15.9717146 L50.0177575,16.0039411 L50.0495655,16.0200544 L50.0813736,16.0442243 L50.1529416,16.0845075 L50.2165577,16.1247907 L50.2801738,16.1731306 L50.3437899,16.2214704 L50.4074059,16.2778669 L50.471022,16.3262068 L50.494878,16.3584333 L50.5266861,16.3826032 L50.5743981,16.4470564 L50.6062062,16.4792829 L50.6300622,16.5115095 L50.6777742,16.5759626 L50.7254863,16.6404157 L50.7652463,16.7129255 L50.7891024,16.7451521 L50.8129584,16.7854353 L50.8447664,16.857945 L50.8845265,16.9385114 L50.9163345,17.0110212 L50.9481425,17.083531 L50.9799506,17.1560407 L51.0117586,17.2366071 L51.0356146,17.3091169 L51.0674227,17.3816267 L51.0833267,17.4541364 L51.1071827,17.5347028 L51.1151347,17.574986 L51.1230867,17.6152693 L51.1389908,17.6958357 L51.1469428,17.7361189 L51.1548948,17.7844587 L51.1628468,17.8730818 L51.1707988,17.9617048 L51.1787508,18.0503278 L51.1787508,18.0664411 L51.1787508,18.0744978 L51.1787508,18.1872907 L51.1787508,18.2920271 L51.1867028,18.3967634 L51.1867028,18.5014997 L51.1867028,18.5498396 L51.1867028,18.5740095 L51.1867028,18.606236 L51.1867028,18.7029157 L51.1867028,18.7431989 L51.1867028,18.7673689 L51.1867028,18.7915388 L51.1946548,18.8882185 L51.1946548,18.9768415 L51.1946548,19.0171247 L51.1946548,19.0412946 L51.1946548,19.0654646 L51.1946548,19.146031 L51.1946548,19.1863142 L51.1946548,19.2024275 L51.1946548,19.2265974 L51.1946548,19.2991071 L51.1946548,19.3796735 L51.1946548,19.4521833 L51.1946548,19.5166364 L51.1946548,19.5810896 L51.1946548,19.6455427 L51.1867028,19.7019392 L51.1867028,19.7663923 L51.1867028,19.8147321 L51.1867028,19.8469587 L51.1867028,19.8711286 L51.1867028,19.9194685 L51.1867028,19.9436384 L51.1867028,19.9678083 L51.1787508,19.9839216 L51.1787508,20.0080915 L51.1787508,20.0483747 L51.1787508,20.064488 L51.1787508,20.0806013 L51.1707988,20.1208845 L51.1707988,20.1450544 L51.1707988,20.177281 L51.1628468,20.2014509 L51.1628468,20.2256208 L51.1548948,20.265904 L51.1469428,20.2900739 L51.1469428,20.2981306 L51.1469428,20.3061872 L51.1469428,20.3142439 L51.1310387,20.3948103 L51.1151347,20.4350935 L51.1151347,20.4431501 L51.1151347,20.4592634 L51.1071827,20.4753767 L51.0992307,20.5156599 L51.0992307,20.5237165 L51.0912787,20.5398298 L51.0912787,20.5559431 L51.0674227,20.6365095 L51.0515187,20.6767927 L51.0435666,20.692906 L51.0435666,20.7009626 L51.0435666,20.7170759 L51.0356146,20.7251325 L51.0356146,20.7331892 L51.0276626,20.7493025 L51.0197106,20.7895857 L50.9879026,20.8620954 L50.9560945,20.9346052 L50.9401905,20.9668318 L50.9242865,21.007115 L50.8924785,21.0715681 L50.8765745,21.1118513 L50.8606704,21.1440778 L50.8209104,21.208531 L50.7811504,21.2729841 L50.7413903,21.3374372 L50.7016303,21.4018903 L50.6539182,21.4582868 L50.6141582,21.52274 L50.5903021,21.5469099 L50.5664461,21.5791364 L50.5425901,21.6033064 L50.5266861,21.6194196 L50.5187341,21.6355329 L50.494878,21.6597028 L50.471022,21.6838728 L50.4153579,21.7402693 L50.3994539,21.7483259 L50.3915019,21.7644392 L50.3596939,21.7886091 L50.3358379,21.812779 L50.3040298,21.8369489 L50.2483658,21.8772321 L50.1847497,21.9175153 L50.1529416,21.9416853 L50.1211336,21.9658552 L50.0654695,22.0061384 L49.9939015,22.038365 L49.9302854,22.0786482 L49.8905254,22.0947614 L49.8587173,22.1108747 L49.7951012,22.1431013 L49.7235332,22.1753278 L49.6519651,22.1994978 L49.580397,22.2317243 L49.5088289,22.2478376 L49.4372608,22.2720075 L49.3656928,22.2881208 L49.2941247,22.2961775 L49.2305086,22.3122907 L49.1907486,22.3122907 L49.1589405,22.3203474 L49.0953245,22.328404 L49.0396604,22.3364607 L48.9839963,22.3445173 L48.9283323,22.3445173 L48.9044762,22.3525739 L48.8806202,22.3525739 L48.8567642,22.3525739 L48.8329082,22.3606306 L48.7692921,22.3686872 L48.7374841,22.3686872 L48.72158,22.3686872 L48.697724,22.3686872 L48.650012,22.3767439 L48.6261559,22.3767439 L48.5943479,22.3767439 L48.5307318,22.3767439 L48.4591637,22.3767439 L48.3796437,22.3767439 L48.3319316,22.3767439 L48.2842195,22.3767439 L48.1887954,22.3848005 L48.0854193,22.3848005 L48.0297553,22.3848005 L47.9104751,22.3848005 L47.8468591,22.3848005 L47.7116749,22.3848005 L47.6480588,22.3848005 L47.1391303,22.3848005 L47.0675622,22.3848005 L47.0039461,22.3848005 L46.94033,22.3848005 L46.876714,22.3848005 L46.8130979,22.3848005 L46.7574338,22.3767439 L46.7017698,22.3767439 L46.6461057,22.3767439 L46.5347776,22.3767439 L46.4870655,22.3686872 L46.4393535,22.3686872 L46.3916414,22.3686872 L46.3439294,22.3606306 L46.2962173,22.3606306 L46.2564573,22.3525739 L46.2166972,22.3525739 L46.1769372,22.3525739 L46.1053691,22.3445173 L46.041753,22.3364607 L46.009945,22.328404 L45.986089,22.328404 L45.9542809,22.3203474 L45.9304249,22.3203474 L45.9065689,22.3122907 L45.8906649,22.3122907 L45.8031928,22.2800642 L45.7236727,22.2558943 L45.6521046,22.2317243 L45.5725845,22.1994978 L45.4930644,22.1672712 L45.4214963,22.126988 L45.3499283,22.0867048 L45.2783602,22.0464216 L45.2067921,21.9980818 L45.1749841,21.9739118 L45.143176,21.9497419 L45.0795599,21.9014021 L45.0159439,21.8611189 L44.9602798,21.812779 L44.9046158,21.7644392 L44.8569037,21.7160993 L44.8091916,21.6758161 L44.7614796,21.6274763 L44.7137675,21.5710798 L44.6740075,21.5146833 L44.6262954,21.4663435 L44.5785834,21.409947 L44.5388233,21.3454939 L44.4990633,21.2810407 L44.4513512,21.2246443 L44.4115912,21.1521345 L44.3956872,21.1199079 L44.3718312,21.0876814 L44.3400231,21.0151716 L44.3082151,20.9426618 L44.276407,20.8701521 L44.252551,20.7976423 L44.228695,20.7251325 L44.212791,20.6848493 L44.204839,20.6445661 L44.1889349,20.5639997 L44.1809829,20.5237165 L44.1730309,20.4834333 L44.1571269,20.3948103 L44.1491749,20.3464704 L44.1412229,20.2981306 L44.1332709,20.2497907 L44.1253189,20.2014509 L44.1173669,20.153111 L44.1173669,20.0967146 L44.1014629,19.9919782 L44.1014629,19.9355818 L44.0935108,19.8791853 L44.0935108,19.8711286 L44.0935108,19.8550153 L44.0855588,13.5305525 L44.0776068,13.5144392 L44.0776068,13.4902693 L44.0776068,13.4660993 L44.0855588,13.4419294 L44.0855588,13.4097028 L44.0855588,13.3774763 L44.0935108,13.3371931 L44.1014629,13.2969099 L44.1014629,13.27274 L44.1014629,13.24857 L44.1094149,13.2002302 L44.1173669,13.1760603 L44.1253189,13.1438337 L44.1412229,13.0793806 L44.1491749,13.047154 L44.1571269,13.0149275 L44.1650789,12.9827009 L44.1809829,12.9424177 L44.196887,12.8618513 L44.212791,12.8215681 L44.228695,12.7812849 L44.252551,12.6926618 L44.2843591,12.6120954 L44.2923111,12.5718122 L44.3082151,12.531529 L44.3479751,12.4509626 L44.3638791,12.418736 L44.3797832,12.3784528 L44.4195432,12.3059431 L44.4593033,12.2334333 L44.5070153,12.1689802 L44.5467754,12.1045271 L44.5944874,12.0400739 L44.6421995,11.9836775 L44.6899115,11.9192243 L44.7455756,11.8628278 L44.8012396,11.8064314 L44.8569037,11.7500349 L44.9125678,11.6936384 L44.9682318,11.6452985 L45.0318479,11.5969587 L45.087512,11.5486189 L45.151128,11.5083357 L45.2147441,11.4680525 L45.2783602,11.4277693 L45.3499283,11.3955427 L45.4135443,11.3633161 L45.4851124,11.3310896 L45.5566805,11.3069196 L45.6202966,11.2746931 L45.6918646,11.2585798 L45.7634327,11.2344099 L45.8350008,11.2182966 L45.9145209,11.1941267 L45.986089,11.18607 L46.001993,11.1780134 L46.025849,11.1780134 L46.0735611,11.1699568 L46.0974171,11.1619001 L46.1292251,11.1619001 L46.1928412,11.1619001 L46.2246492,11.1538435 L46.3280254,11.1457868 L46.4075454,11.1377302 L46.4950175,11.1377302 L46.5904416,11.1377302 L46.7971939,11.1296735 L48.5227798,11.1135603 L48.5386838,11.1135603 L48.5545879,11.1135603 L48.5704919,11.1135603 L48.5784439,11.1135603 L48.5863959,11.1135603 L48.5943479,11.1135603 L48.6022999,11.1216169 L48.68182,11.1216169 L48.7772441,11.1216169 L48.8567642,11.1296735 L48.9442363,11.1457868 L49.0317084,11.1538435 L49.1191805,11.1699568 L49.1987006,11.1780134 L49.2861727,11.2021833 L49.3736448,11.2182966 L49.4531649,11.2344099 L49.4929249,11.2505232 L49.5326849,11.2585798 L49.612205,11.2827497 L49.6519651,11.298863 L49.6837731,11.3149763 L49.7632932,11.3472028 L49.8348613,11.3794294 L49.9064294,11.411656 L49.9382374,11.4358259 L49.9700454,11.4519392 L50.0098055,11.4680525 L50.0416135,11.4922224 L50.1052296,11.5405622 L50.1688457,11.5889021 L50.2324617,11.6372419 L50.2881258,11.6936384 L50.3437899,11.7500349 L50.3676459,11.7822614 L50.3994539,11.814488 L50.447166,11.8789411 L50.494878,11.9433943 L50.5425901,12.0078474 L50.5823501,12.0723005 L50.6221102,12.1367536 L50.6618702,12.2012068 L50.6936783,12.2656599 L50.7254863,12.330113 L50.7572943,12.3945661 L50.7811504,12.4590193 L50.8129584,12.5234724 L50.8368144,12.5879255 L50.8606704,12.6604353 L50.8924785,12.732945 L50.9163345,12.8054548 L50.9401905,12.8779646 L50.9799506,13.0390974 L51.0038066,13.1116071 L51.0276626,13.1921735 L51.0594707,13.3533064 L51.0833267,13.4338728 L51.0992307,13.5144392 L51.1071827,13.5708357 L51.1071827,13.5869489 L51.1151347,13.6030622 L51.1151347,13.6272321 L51.1310387,13.6836286 L51.1310387,13.6997419 L51.1310387,13.7077985 L51.1389908,13.7077985 L51.1389908,13.7400251 L49.2543646,14.2959333 L49.2305086,14.1428571 L49.2146046,14.0703474 L49.2066526,13.9978376 L49.1907486,13.9253278 L49.1748445,13.8528181 L49.1668925,13.8125349 L49.1589405,13.7803083 L49.1430365,13.7077985 L49.1350845,13.6594587 L49.1271325,13.6272321 L49.1112285,13.5869489 L49.1032765,13.5547224 L49.0873724,13.5224958 L49.0714684,13.4902693 L49.0555644,13.4660993 L49.0396604,13.4338728 L49.0237564,13.4097028 L49.0078524,13.3855329 L48.9839963,13.361363 L48.9680923,13.3371931 L48.9442363,13.3130232 L48.9203803,13.2969099 L48.8965242,13.27274 L48.8726682,13.2566267 L48.8488122,13.2405134 L48.8170041,13.2324568 L48.7931481,13.2163435 L48.7613401,13.2002302 L48.729532,13.1921735 L48.697724,13.1841169 L48.657964,13.1760603 L48.6182039,13.1680036 L48.5784439,13.159947 L48.5386838,13.1518903 L48.4989238,13.1518903 L48.4591637,13.1438337 L48.4114517,13.1438337 L48.3637396,13.1438337 Z M46.8290019,17.7038923 L46.6620097,17.7200056 L46.6063457,17.7280622 L46.5586336,17.7441755 L46.5109216,17.7683454 L46.4552575,17.7925153 L46.4075454,17.8247419 L46.3598334,17.8569685 L46.3121213,17.8972517 L46.2962173,17.913365 L46.2803133,17.9294782 L46.2723613,17.9455915 L46.2564573,17.9617048 L46.2326012,18.001988 L46.2087452,18.0422712 L46.1928412,18.0825544 L46.1769372,18.1228376 L46.1689852,18.1470075 L46.1610332,18.1711775 L46.1530812,18.2195173 L46.1530812,18.2678571 L46.1451291,18.316197 L46.1451291,18.3725935 L46.1451291,18.42899 L46.1451291,18.4370466 L46.1371771,19.6697126 L46.1371771,19.7019392 L46.1371771,19.7341657 L46.1451291,19.7744489 L46.1530812,19.8066755 L46.1530812,19.8389021 L46.1610332,19.8711286 L46.1689852,19.9033552 L46.1769372,19.9355818 L46.1928412,19.9678083 L46.2007932,19.9919782 L46.2166972,20.0242048 L46.2246492,20.0483747 L46.2405533,20.0725446 L46.2564573,20.1047712 L46.2723613,20.1289411 L46.2962173,20.153111 L46.3041693,20.1692243 L46.3280254,20.1933943 L46.3439294,20.2095075 L46.3598334,20.2256208 L46.3836894,20.2336775 L46.4075454,20.2497907 L46.4314015,20.265904 L46.4552575,20.2739607 L46.4870655,20.2820173 L46.5109216,20.2900739 L46.5427296,20.2981306 L46.5745376,20.3061872 L46.6063457,20.3142439 L46.6381537,20.3223005 L46.6779137,20.3223005 L46.7097218,20.3303571 L46.7812899,20.3303571 L46.8449059,20.3303571 L48.4273557,20.3303571 L48.4432597,20.3303571 L48.4671158,20.3303571 L48.5068758,20.3303571 L48.5386838,20.3303571 L48.5466358,20.3303571 L48.5625399,20.3303571 L48.5784439,20.3303571 L48.5943479,20.3303571 L48.6182039,20.3303571 L48.650012,20.3223005 L48.665916,20.3223005 L48.68182,20.3142439 L48.72158,20.3142439 L48.7533881,20.3061872 L48.7692921,20.2981306 L48.7772441,20.2981306 L48.7851961,20.2900739 L48.7931481,20.2900739 L48.8090521,20.2900739 L48.8170041,20.2820173 L48.8249562,20.2820173 L48.8408602,20.2739607 L48.8647162,20.265904 L48.8885722,20.2497907 L48.9124283,20.2417341 L48.9203803,20.2336775 L48.9283323,20.2256208 L48.9442363,20.2175642 L48.9521883,20.2095075 L48.9680923,20.1933943 L48.9760443,20.1853376 L48.9919483,20.177281 L49.0078524,20.153111 L49.0237564,20.1289411 L49.0396604,20.1047712 L49.0396604,20.0967146 L49.0476124,20.0967146 L49.0555644,20.0806013 L49.0555644,20.0725446 L49.0635164,20.064488 L49.0714684,20.0564314 L49.0794204,20.0242048 L49.0953245,20.0000349 L49.1032765,19.9678083 L49.1112285,19.951695 L49.1191805,19.9355818 L49.1271325,19.9114118 L49.1350845,19.8711286 L49.1430365,19.8469587 L49.1430365,19.8066755 L49.1509885,19.7744489 L49.1509885,19.7422224 L49.1589405,19.7099958 L49.1589405,19.6697126 L49.1509885,18.4451032 L49.1509885,18.4370466 L49.1509885,18.42899 L49.1509885,18.3887068 L49.1509885,18.3484235 L49.1509885,18.3081403 L49.1430365,18.2678571 L49.1430365,18.2275739 L49.1350845,18.1872907 L49.1271325,18.1550642 L49.1191805,18.1228376 L49.1032765,18.090611 L49.0953245,18.0583845 L49.0794204,18.0261579 L49.0635164,18.001988 L49.0476124,17.9697614 L49.0237564,17.9455915 L49.0078524,17.9214216 L48.9839963,17.9053083 L48.9601403,17.8811384 L48.9362843,17.8569685 L48.9124283,17.8408552 L48.8885722,17.8247419 L48.8329082,17.7925153 L48.8090521,17.7764021 L48.7851961,17.7683454 L48.7374841,17.7441755 L48.705676,17.7361189 L48.68182,17.7361189 L48.6341079,17.7200056 L48.5784439,17.7200056 L46.8290019,17.7038923 Z" id="Shape" stroke-width="0.5" fill="#50505A" fill-rule="nonzero"></path>
            <line x1="22.6836735" y1="27.6964286" x2="32.5714286" y2="27.5304367" id="Path-2-Copy-2" stroke-width="2.2" stroke-linecap="round" stroke-linejoin="round"></line>
            <line x1="22.6836735" y1="5.30357143" x2="32.5714286" y2="5.13757952" id="Path-2-Copy-3" stroke-width="2.2" stroke-linecap="round" stroke-linejoin="round"></line>
        </g>
    </g>
</svg>
