<svg width="64" height="64" xmlns="http://www.w3.org/2000/svg"><defs><filter color-interpolation-filters="auto" id="a"><feColorMatrix in="SourceGraphic" values="0 0 0 0 0.156863 0 0 0 0 0.203922 0 0 0 0 0.325490 0 0 0 1.000000 0"/></filter></defs><g filter="url(#a)" fill="none" fill-rule="evenodd" stroke-linecap="round" stroke-linejoin="round"><g stroke="#50505A" stroke-width="2.475"><path d="M17.1818 8h9.5455v6.4h-9.5455zM30.841 26.2627c-1.2425-1.2496-1.2425-3.2757 0-4.5255 1.2425-1.2496 3.2571-1.2496 4.4998 0l6.3637 6.4c1.2425 1.2498 1.2425 3.276 0 4.5255-1.2427 1.2498-3.2573 1.2498-4.4998 0l-6.3637-6.4z"/><path d="M45.8182 24l-6.3637-6.4c-1.6405-1.65-2.8463-3.2-6.3636-3.2H17.182C15.4231 14.4 14 15.8313 14 17.6v35.2c0 1.7687 1.4232 3.2 3.1818 3.2h28.6364C47.5768 56 49 54.5687 49 52.8V30.4c0-3.5374-1.5412-4.75-3.1818-6.4z"/><path d="M29.909 44.8c0 2.651-2.1367 4.8-4.7726 4.8-2.636 0-4.7728-2.149-4.7728-4.8s2.3864-5.6 4.7728-8c2.3863 2.4 4.7727 5.349 4.7727 8z"/></g></g></svg>
