<?xml version="1.0" encoding="UTF-8"?>
<svg width="64px" height="64px" viewBox="0 0 64 64" version="1.1" xmlns="http://www.w3.org/2000/svg" xmlns:xlink="http://www.w3.org/1999/xlink">
    <title>Icons / Vehicle / Piston</title>
    <defs>
        <filter color-interpolation-filters="auto" id="filter-1">
            <feColorMatrix in="SourceGraphic" type="matrix" values="0 0 0 0 0.156863 0 0 0 0 0.203922 0 0 0 0 0.325490 0 0 0 1.000000 0"></feColorMatrix>
        </filter>
    </defs>
    <g id="Icons-/-Vehicle-/-Piston" stroke="none" stroke-width="1" fill="none" fill-rule="evenodd" stroke-linecap="round" stroke-linejoin="round">
        <g filter="url(#filter-1)" id="Group-15">
            <g transform="translate(8.000000, 8.000000)">
                <path d="M12.5784583,41.7372152 C10.997472,43.3186246 8.43428416,43.3186246 6.85329782,41.7372152 C5.27231148,40.1558057 5.27231148,37.5919318 6.85329782,36.0105224 C8.43428416,34.4291129 10.997472,34.4291129 12.5784583,36.0105224 C14.1594447,37.5919318 14.1594447,40.1558057 12.5784583,41.7372152 Z" id="Stroke-447" stroke="#50505A" stroke-width="2.5"></path>
                <path d="M32.6370134,20.805847 L22.2520184,31.1936214 C19.3511145,34.0953018 19.4317202,35.7495997 19.4317202,38.8739048 C19.4317202,44.2411945 15.0818936,48.5923652 9.71586009,48.5923652 C4.35000647,48.5923652 0,44.2411945 0,38.8739048 C0,33.506435 4.35000647,29.1554443 9.71586009,29.1554443 C12.8395091,29.1554443 14.4931845,29.2360715 17.3951679,26.3333114 L27.7789034,15.9467968" id="Stroke-448" stroke="#50505A" stroke-width="2.5"></path>
                <line x1="33.9893352" y1="14.5777357" x2="34.0217214" y2="14.5777357" id="Stroke-449" stroke="#50505A" stroke-width="2.5"></line>
                <path d="M48.1050585,15.7230742 C48.737489,15.0904744 48.737489,14.0649969 48.1050585,13.4323971 L35.1505784,0.47444984 C34.5181479,-0.158149947 33.4929447,-0.158149947 32.8605142,0.47444984 L19.9060341,13.4323971 C22.2774236,15.8044213 26.0952169,13.5373205 30.57045,18.0137513 C35.0456831,22.4901822 32.7791888,26.3089972 35.1505784,28.6810215 L48.1050585,15.7230742 Z" id="Stroke-450" stroke="#50505A" stroke-width="2.5"></path>
                <line x1="29.9587286" y1="3.37703002" x2="45.203273" y2="18.6256544" id="Stroke-451" stroke="#50505A" stroke-width="2.5"></line>
            </g>
        </g>
    </g>
</svg>
