<?xml version="1.0" encoding="UTF-8"?>
<svg width="64px" height="64px" viewBox="0 0 64 64" version="1.1" xmlns="http://www.w3.org/2000/svg" xmlns:xlink="http://www.w3.org/1999/xlink">
    <title>Icons / Vehicle / Speaker</title>
    <defs>
        <filter color-interpolation-filters="auto" id="filter-1">
            <feColorMatrix in="SourceGraphic" type="matrix" values="0 0 0 0 0.156863 0 0 0 0 0.203922 0 0 0 0 0.325490 0 0 0 1.000000 0"></feColorMatrix>
        </filter>
    </defs>
    <g id="Icons-/-Vehicle-/-Speaker" stroke="none" stroke-width="1" fill="none" fill-rule="evenodd" stroke-linecap="round" stroke-linejoin="round">
        <g filter="url(#filter-1)" id="Group-8">
            <g transform="translate(8.000000, 8.000000)">
                <path d="M1.4229057,8.2952459 C-0.474205942,6.39762651 -0.474205942,3.32083393 1.4229057,1.42321454 C3.32001735,-0.474404847 6.39580676,-0.474404847 8.29309832,1.42321454" id="Stroke-574" stroke="#50505A" stroke-width="2.5"></path>
                <path d="M40.286346,1.42325053 C42.1834577,-0.474368852 45.2592471,-0.474368852 47.1565387,1.42325053 C49.0536503,3.32086992 49.0536503,6.39766251 47.1565387,8.2952819" id="Stroke-575" stroke="#50505A" stroke-width="2.5"></path>
                <path d="M8.29302635,47.1690877 C6.39591471,49.0667071 3.3201253,49.0667071 1.42283373,47.1690877 C-0.474277911,45.2714683 -0.474277911,42.1946757 1.42283373,40.2970563" id="Stroke-576" stroke="#50505A" stroke-width="2.5"></path>
                <path d="M47.1564667,40.2970923 C49.0535783,42.1947117 49.0535783,45.2715043 47.1564667,47.1691237 C45.2593551,49.0667431 42.1835656,49.0667431 40.2862741,47.1691237" id="Stroke-577" stroke="#50505A" stroke-width="2.5"></path>
                <path d="M4.02423728,37.6948305 C1.48102094,33.853879 7.19693339e-05,29.2480486 7.19693339e-05,24.2961331 C7.19693339e-05,19.3442176 1.48102094,14.7382072 4.02423728,10.8974357" id="Stroke-578" stroke="#50505A" stroke-width="2.5"></path>
                <path d="M37.6847446,44.5670419 C33.8448208,47.1109389 29.2402228,48.5922842 24.2896322,48.5922842 C19.3390417,48.5922842 14.7344437,47.1109389 10.8945199,44.5670419" id="Stroke-579" stroke="#50505A" stroke-width="2.5"></path>
                <path d="M44.5550811,10.8974357 C47.0982975,14.7383872 48.5792465,19.3442176 48.5792465,24.2961331 C48.5792465,29.2480486 47.0982975,33.853879 44.5550811,37.6948305" id="Stroke-580" stroke="#50505A" stroke-width="2.5"></path>
                <path d="M10.8946278,4.02527833 C14.7345516,1.48138133 19.3391496,3.59942979e-05 24.2897402,3.59942979e-05 C29.2403307,3.59942979e-05 33.8449287,1.48138133 37.6846726,4.02527833" id="Stroke-581" stroke="#50505A" stroke-width="2.5"></path>
                <line x1="1.4229057" y1="8.2952459" x2="4.0244172" y2="10.8974537" id="Stroke-582" stroke="#50505A" stroke-width="2.5"></line>
                <line x1="8.29302635" y1="1.42325053" x2="10.8950776" y2="4.02599822" id="Stroke-583" stroke="#50505A" stroke-width="2.5"></line>
                <line x1="40.286346" y1="1.42325053" x2="37.6844747" y2="4.02581825" id="Stroke-584" stroke="#50505A" stroke-width="2.5"></line>
                <line x1="47.1564667" y1="8.2952459" x2="44.5547753" y2="10.8976336" id="Stroke-585" stroke="#50505A" stroke-width="2.5"></line>
                <line x1="47.1564667" y1="40.2970923" x2="44.5542355" y2="37.6941646" id="Stroke-586" stroke="#50505A" stroke-width="2.5"></line>
                <line x1="40.286346" y1="47.1690877" x2="37.6842948" y2="44.56634" id="Stroke-587" stroke="#50505A" stroke-width="2.5"></line>
                <line x1="8.29302635" y1="47.1690877" x2="10.8948977" y2="44.56652" id="Stroke-588" stroke="#50505A" stroke-width="2.5"></line>
                <line x1="1.4229057" y1="40.2970923" x2="4.02477705" y2="37.6945246" id="Stroke-589" stroke="#50505A" stroke-width="2.5"></line>
                <path d="M42.1020964,24.2961691 C42.1020964,34.1362903 34.1271745,42.1133466 24.2896862,42.1133466 C14.4521979,42.1133466 6.47727604,34.1362903 6.47727604,24.2961691 C6.47727604,14.4560479 14.4521979,6.47899163 24.2896862,6.47899163 C34.1271745,6.47899163 42.1020964,14.4560479 42.1020964,24.2961691 Z" id="Stroke-590" stroke="#50505A" stroke-width="2.5"></path>
                <path d="M29.1476162,24.2961691 C29.1476162,26.979904 26.972703,29.1553993 24.2896862,29.1553993 C21.6066694,29.1553993 19.4317562,26.979904 19.4317562,24.2961691 C19.4317562,21.6124342 21.6066694,19.4369389 24.2896862,19.4369389 C26.972703,19.4369389 29.1476162,21.6124342 29.1476162,24.2961691 Z" id="Stroke-591" stroke="#50505A" stroke-width="2.5"></path>
                <line x1="4.84175494" y1="43.73309" x2="4.87414114" y2="43.73309" id="Stroke-592" stroke="#50505A" stroke-width="2.5"></line>
                <line x1="4.84175494" y1="4.85924822" x2="4.87414114" y2="4.85924822" id="Stroke-593" stroke="#50505A" stroke-width="2.5"></line>
                <line x1="43.7051953" y1="43.73309" x2="43.7375815" y2="43.73309" id="Stroke-594" stroke="#50505A" stroke-width="2.5"></line>
                <line x1="43.7051953" y1="4.85924822" x2="43.7375815" y2="4.85924822" id="Stroke-595" stroke="#50505A" stroke-width="2.5"></line>
            </g>
        </g>
    </g>
</svg>
