<?xml version="1.0" encoding="UTF-8"?>
<svg width="64px" height="64px" viewBox="0 0 64 64" version="1.1" xmlns="http://www.w3.org/2000/svg" xmlns:xlink="http://www.w3.org/1999/xlink">
    <title>Icons / Vehicle / Steering Wheel</title>
    <defs>
        <filter color-interpolation-filters="auto" id="filter-1">
            <feColorMatrix in="SourceGraphic" type="matrix" values="0 0 0 0 0.156863 0 0 0 0 0.203922 0 0 0 0 0.325490 0 0 0 1.000000 0"></feColorMatrix>
        </filter>
    </defs>
    <g id="Icons-/-Vehicle-/-Steering-Wheel" stroke="none" stroke-width="1" fill="none" fill-rule="evenodd" stroke-linecap="round" stroke-linejoin="round">
        <g filter="url(#filter-1)" id="Group-26">
            <g transform="translate(8.000000, 8.000000)">
                <path d="M48.5793004,24.2961511 C48.5793004,37.7144654 37.7043742,48.5923022 24.2896502,48.5923022 C10.8749262,48.5923022 0,37.7144654 0,24.2961511 C0,10.8778368 10.8749262,0 24.2896502,0 C37.7043742,0 48.5793004,10.8778368 48.5793004,24.2961511 Z" id="Stroke-342" stroke="#50505A" stroke-width="2.5"></path>
                <path d="M29.1475803,19.4369209 C32.3862003,19.4369209 32.3862003,22.6764077 35.6248203,22.6764077 L42.8424449,22.6780274 C42.0227142,13.1483571 34.0292602,5.66910192 24.2896502,5.66910192 C14.5498603,5.66910192 6.55658625,13.1483571 5.73703546,22.6764077 L12.9544801,22.6764077 C16.1931001,22.6764077 16.1931001,19.4369209 19.4317202,19.4369209 L29.1475803,19.4369209 Z" id="Stroke-343" stroke="#50505A" stroke-width="2.5"></path>
                <line x1="22.6703402" y1="25.9158945" x2="25.9089602" y2="25.9158945" id="Stroke-344" stroke="#50505A" stroke-width="2.5"></line>
                <path d="M42.2711163,29.157595 C40.4080102,36.0692201 34.6682759,41.3900772 27.5283782,42.6424988 C27.5281983,42.6419588 27.5281983,35.6362087 27.5281983,35.6362087 C27.5281983,32.0531563 30.4253238,29.1554353 34.0054383,29.1554353 C34.0054383,29.1554353 36.8993253,29.1554353 42.2711163,29.157595 Z" id="Stroke-345" stroke="#50505A" stroke-width="2.5"></path>
                <path d="M21.0509402,42.6424808 C13.9110425,41.3900592 8.17112829,36.0692021 6.30820208,29.157397 C11.6790936,29.1554173 14.5737002,29.1554173 14.5737002,29.1554173 C18.1539946,29.1554173 21.0509402,32.0531383 21.0509402,35.6361907 C21.0509402,35.6361907 21.0509402,42.6419408 21.0509402,42.6424808 Z" id="Stroke-346" stroke="#50505A" stroke-width="2.5"></path>
            </g>
        </g>
    </g>
</svg>
