<?xml version="1.0" encoding="UTF-8"?>
<svg width="64px" height="64px" viewBox="0 0 64 64" version="1.1" xmlns="http://www.w3.org/2000/svg" xmlns:xlink="http://www.w3.org/1999/xlink">
    <title>Icons / Vehicle / Steel Wheel</title>
    <defs>
        <filter color-interpolation-filters="auto" id="filter-1">
            <feColorMatrix in="SourceGraphic" type="matrix" values="0 0 0 0 0.156863 0 0 0 0 0.203922 0 0 0 0 0.325490 0 0 0 1.000000 0"></feColorMatrix>
        </filter>
    </defs>
    <g id="Icons-/-Vehicle-/-Steel-Wheel" stroke="none" stroke-width="1" fill="none" fill-rule="evenodd" stroke-linecap="round" stroke-linejoin="round">
        <g filter="url(#filter-1)" id="Group-55">
            <g transform="translate(8.000000, 8.000000)">
                <path d="M48,24 C48,37.2547556 37.2547556,48 24,48 C10.7452444,48 0,37.2547556 0,24 C0,10.7452444 10.7452444,0 24,0 C37.2547556,0 48,10.7452444 48,24 Z" id="Stroke-83" stroke="#50505A" stroke-width="2.475"></path>
                <path d="M28.8,24 C28.8,26.6510222 26.6510222,28.8 24,28.8 C21.3489778,28.8 19.2,26.6510222 19.2,24 C19.2,21.3489778 21.3489778,19.2 24,19.2 C26.6510222,19.2 28.8,21.3489778 28.8,24 Z" id="Stroke-85" stroke="#50505A" stroke-width="2.475"></path>
                <path d="M26.4,36.8 C26.4,38.1255111 25.3255111,39.2 24,39.2 C22.6744889,39.2 21.6,38.1255111 21.6,36.8 C21.6,35.4744889 22.6744889,34.4 24,34.4 C25.3255111,34.4 26.4,35.4744889 26.4,36.8 Z" id="Stroke-87" stroke="#50505A" stroke-width="2.475"></path>
                <path d="M26.4,11.2 C26.4,12.5255111 25.3255111,13.6 24,13.6 C22.6744889,13.6 21.6,12.5255111 21.6,11.2 C21.6,9.87448889 22.6744889,8.8 24,8.8 C25.3255111,8.8 26.4,9.87448889 26.4,11.2 Z" id="Stroke-89" stroke="#50505A" stroke-width="2.475"></path>
                <path d="M34.748,31.3539022 C35.6852444,32.2911467 35.6852444,33.8107911 34.748,34.7480356 C33.8107556,35.68528 32.2911111,35.68528 31.3538667,34.7480356 C30.4166222,33.8107911 30.4166222,32.2911467 31.3538667,31.3539022 C32.2911111,30.4166578 33.8107556,30.4166578 34.748,31.3539022 Z" id="Stroke-91" stroke="#50505A" stroke-width="2.475"></path>
                <path d="M16.6460978,13.252 C17.5833422,14.1892444 17.5833422,15.7088889 16.6460978,16.6461333 C15.7088533,17.5833778 14.1892089,17.5833778 13.2519644,16.6461333 C12.31472,15.7088889 12.31472,14.1892444 13.2519644,13.252 C14.1892089,12.3147556 15.7088533,12.3147556 16.6460978,13.252 Z" id="Stroke-93" stroke="#50505A" stroke-width="2.475"></path>
                <path d="M36.8,21.6 C38.1255111,21.6 39.2,22.6744889 39.2,24 C39.2,25.3255111 38.1255111,26.4 36.8,26.4 C35.4744889,26.4 34.4,25.3255111 34.4,24 C34.4,22.6744889 35.4744889,21.6 36.8,21.6 Z" id="Stroke-95" stroke="#50505A" stroke-width="2.475"></path>
                <path d="M11.2,21.6 C12.5255111,21.6 13.6,22.6744889 13.6,24 C13.6,25.3255111 12.5255111,26.4 11.2,26.4 C9.87448889,26.4 8.8,25.3255111 8.8,24 C8.8,22.6744889 9.87448889,21.6 11.2,21.6 Z" id="Stroke-97" stroke="#50505A" stroke-width="2.475"></path>
                <path d="M16.6460978,34.748 C15.7088533,35.6852444 14.1892089,35.6852444 13.2519644,34.748 C12.31472,33.8107556 12.31472,32.2911111 13.2519644,31.3538667 C14.1892089,30.4166222 15.7088533,30.4166222 16.6460978,31.3538667 C17.5833422,32.2911111 17.5833422,33.8107556 16.6460978,34.748 Z" id="Stroke-99" stroke="#50505A" stroke-width="2.475"></path>
                <path d="M34.748,16.6460978 C33.8107556,17.5833422 32.2911111,17.5833422 31.3538667,16.6460978 C30.4166222,15.7088533 30.4166222,14.1892089 31.3538667,13.2519644 C32.2911111,12.31472 33.8107556,12.31472 34.748,13.2519644 C35.6852444,14.1892089 35.6852444,15.7088533 34.748,16.6460978 Z" id="Stroke-101" stroke="#50505A" stroke-width="2.475"></path>
                <path d="M43.2,24 C43.2,34.6039111 34.6039111,43.2 24,43.2 C13.3960889,43.2 4.8,34.6039111 4.8,24 C4.8,13.3960889 13.3960889,4.8 24,4.8 C34.6039111,4.8 43.2,13.3960889 43.2,24 Z" id="Stroke-103" stroke="#50505A" stroke-width="2.475"></path>
            </g>
        </g>
    </g>
</svg>
