<?xml version="1.0" encoding="UTF-8"?>
<svg width="64px" height="64px" viewBox="0 0 64 64" version="1.1" xmlns="http://www.w3.org/2000/svg" xmlns:xlink="http://www.w3.org/1999/xlink">
    <title>Icons / Vehicle / Turbo</title>
    <defs>
        <filter color-interpolation-filters="auto" id="filter-1">
            <feColorMatrix in="SourceGraphic" type="matrix" values="0 0 0 0 0.156863 0 0 0 0 0.203922 0 0 0 0 0.325490 0 0 0 1.000000 0"></feColorMatrix>
        </filter>
    </defs>
    <g id="Icons-/-Vehicle-/-Turbo" stroke="none" stroke-width="1" fill="none" fill-rule="evenodd" stroke-linecap="round" stroke-linejoin="round">
        <g filter="url(#filter-1)" id="Group-4">
            <g transform="translate(8.000000, 11.000000)" id="Group-2" stroke="#50505A" stroke-width="2.5">
                <path d="M21.0510302,0.0899857448 C9.42492405,0.0899857448 0,9.51743229 0,21.14665 C0,32.7758678 9.42492405,42.2033143 21.0510302,42.2033143 C32.6771363,42.2033143 42.1020604,32.7758678 42.1020604,21.14665 C42.1020604,18.2766447 41.5281049,15.5408981 40.4885079,13.047753" id="Stroke-502"></path>
                <path d="M9.71586009,21.14665 C9.71586009,27.408578 14.7907777,32.4848539 21.0510302,32.4848539 C27.3112827,32.4848539 32.3862003,27.408578 32.3862003,21.14665 C32.3862003,14.884722 27.3112827,9.80844619 21.0510302,9.80844619 C14.7907777,9.80844619 9.71586009,14.884722 9.71586009,21.14665 Z" id="Stroke-503"></path>
                <line x1="21.0510302" y1="0.0899857448" x2="48.5793004" y2="0.0899857448" id="Stroke-504"></line>
                <line x1="40.4885799" y1="13.047663" x2="48.5793724" y2="13.047843" id="Stroke-505"></line>
                <line x1="48.5793004" y1="0.0899857448" x2="48.5793004" y2="13.047933" id="Stroke-506"></line>
                <path d="M21.0510302,17.9071632 C21.0510302,14.3260905 18.878276,10.901773 16.1931001,10.901773" id="Stroke-507"></path>
                <path d="M24.2896502,21.14665 C24.2896502,22.9357466 22.8396481,24.3861368 21.0510302,24.3861368 C19.2624123,24.3861368 17.8124102,22.9357466 17.8124102,21.14665 C17.8124102,19.3575535 19.2624123,17.9071632 21.0510302,17.9071632 C22.8396481,17.9071632 24.2896502,19.3575535 24.2896502,21.14665 Z" id="Stroke-508"></path>
                <path d="M21.0510302,24.3861368 C21.0510302,27.9672096 23.2237844,31.3915271 25.9089602,31.3915271" id="Stroke-509"></path>
                <path d="M18.2462953,22.7663934 C15.1458564,24.5569298 13.2674568,28.1513204 14.6100447,30.4772719" id="Stroke-510"></path>
                <path d="M23.8557651,19.5269066 C26.956204,17.7363703 28.8346036,14.1419797 27.4920157,11.8160282" id="Stroke-511"></path>
                <path d="M23.8557651,22.7663934 C26.956204,24.5569298 31.0073578,24.3868567 32.3499457,22.0609052" id="Stroke-512"></path>
                <path d="M18.2462953,19.5269066 C15.1458564,17.7363703 11.0947026,17.9064433 9.75211464,20.2323949" id="Stroke-513"></path>
            </g>
        </g>
    </g>
</svg>
