<?xml version="1.0" encoding="UTF-8"?>
<svg width="64px" height="64px" viewBox="0 0 64 64" version="1.1" xmlns="http://www.w3.org/2000/svg" xmlns:xlink="http://www.w3.org/1999/xlink">
    <title>Icons / Vehicle / Van on Ramp</title>
    <g id="Icons-/-Vehicle-/-Van-on-Ramp" stroke="none" stroke-width="1" fill="none" fill-rule="evenodd" stroke-linecap="round" stroke-linejoin="round">
        <g id="Group" transform="translate(6.000000, 7.000000)" stroke="#50505A" stroke-width="2.1">
            <g id="Group-Copy" transform="translate(0.000000, 4.872340)">
                <rect id="Rectangle-Copy-6" x="0" y="40.8154319" width="11.0416667" height="3.75903614"></rect>
                <rect id="Rectangle-Copy-7" x="2.20833333" y="0" width="6.625" height="40.9361702"></rect>
                <rect id="Rectangle-Copy-8" x="12.1458333" y="24.1276596" width="6.625" height="3.31914894"></rect>
                <rect id="Rectangle-Copy-9" x="34.2291667" y="24.1276596" width="6.625" height="3.31914894"></rect>
                <rect id="Rectangle-Copy-10" x="44.1666667" y="0" width="6.625" height="40.9361702"></rect>
                <rect id="Rectangle-Copy-11" x="42" y="40.8154319" width="11.0416667" height="3.75903614"></rect>
                <line x1="41.40625" y1="25.787234" x2="50.7916667" y2="25.6314093" id="Path-2-Copy-2"></line>
                <line x1="2.76041667" y1="25.787234" x2="11.59375" y2="25.787234" id="Path-2-Copy-3"></line>
            </g>
            <g id="Group-62-Copy-2" transform="translate(12.145833, 0.000000)">
                <path d="M18.9475,24.927569 C18.9475,21.8699567 17.7735023,19.3956541 16.3227381,19.3956541 L12.3855952,19.3956541 C10.934831,19.3956541 9.76083333,21.8699567 9.76083333,24.927569" id="Stroke-457"></path>
                <path d="M17.7991667,22.312268 L10.9091667,22.312268" id="Stroke-457-Copy"></path>
                <path d="M24.2033333,23.0914441 L23.6291667,23.0914441" id="Stroke-457-Copy-5"></path>
                <path d="M14.2796393,0 L14.8597851,0.00256308883 L15.3053345,0.0103399735 L15.9791016,0.0312467404 L16.4302829,0.0509873863 L17.1072732,0.0886885714 L17.5571201,0.118858014 L18.2268839,0.17105117 L18.8872959,0.230834333 L19.3205175,0.274497123 L19.9569836,0.345088341 L20.3707579,0.395189018 L21.1680036,0.501580872 L21.7350338,0.585824423 L22.271395,0.672960988 L22.610073,0.732249938 L23.0869594,0.822366238 L23.3825044,0.882874195 L23.7894663,0.973667781 L24.0349117,1.03385978 L24.2583667,1.09349561 C24.2937148,1.10337492 24.3281001,1.11322082 24.3614995,1.1230282 L24.549879,1.18136928 L24.7134815,1.2385402 C24.7386219,1.24795753 24.7626835,1.25731586 24.785643,1.2666101 L24.9099901,1.32156529 C24.9653656,1.34861731 25.0104048,1.37500028 25.0444807,1.40057605 L25.0708795,1.42262309 L25.7399667,5.9371594 L25.9202469,6.93930578 L25.9334773,6.9991581 C26.0405542,7.40687852 26.1394888,7.80737959 26.2305621,8.20055596 C26.3039069,8.51719632 26.5629919,8.74517641 26.8682684,8.76170138 C27.8457675,8.81461456 28.3482749,9.57696396 28.5590207,11.0840698 L28.5865872,11.2956271 L28.6090732,11.5023101 L28.6272767,11.7137462 L28.6419954,11.9395627 L28.6592849,12.3263105 L28.6732215,12.799568 L28.6886783,13.370478 L28.699079,13.5722132 L28.7083333,13.6869411 L28.7025853,13.7142598 C28.6958855,13.7368481 28.682663,13.7726032 28.6593883,13.8205064 C28.5828619,13.9780106 28.4401042,14.1699927 28.240507,14.3874558 L28.1386176,14.4948686 L27.7703231,14.853231 L27.6262294,14.9985097 L27.4895503,15.1414529 L27.3737524,15.2703895 C27.3233182,15.3294108 27.2857644,15.3788029 27.2686659,15.4120006 C27.2483025,15.4515375 27.2313721,15.4929797 27.2180866,15.535809 L27.2120708,15.5552024 C27.1888163,15.6301694 27.1769639,15.7086267 27.1769639,15.7875937 L27.1769639,28.7964353 C27.1769639,28.8993813 27.0992256,28.9883893 26.9942895,28.9983292 L26.9433622,29 L23.2405089,28.9992797 C23.1257067,28.9992797 23.0374892,28.9065034 23.0374892,28.7964353 L23.0374892,25.9692555 C23.0374892,25.5608139 22.7271924,25.2297066 22.344422,25.2297066 L6.36394397,25.2297066 C5.98117349,25.2297066 5.67087671,25.5608139 5.67087671,25.9692555 L5.67087671,28.7964353 C5.67087671,28.8993813 5.59313834,28.9883893 5.48820227,28.9983292 L5.437275,29 L1.73442171,28.9992797 C1.61961949,28.9992797 1.531402,28.9065034 1.531402,28.7964353 L1.531402,15.7875937 C1.531402,15.5725792 1.47116542,15.442531 1.37581129,15.3067174 C1.34227282,15.2589484 1.30652539,15.2165267 1.26419221,15.171063 L1.15754087,15.0629987 L0.816708246,14.7403855 C0.719876077,14.6476896 0.635736736,14.5643326 0.556853198,14.4821881 C0.310401295,14.2255484 0.136436349,14.0005112 0.0489776382,13.8205064 C0.0334611784,13.788571 0.0224123354,13.7620346 0.0147853876,13.7411993 L0.00112450848,13.6960983 C0,13.6915326 0,13.6884676 0,13.6869411 L0.0092878351,13.5722 L0.0196890495,13.3704387 L0.0441949811,12.4727182 L0.0543365713,12.1892421 L0.0733404133,11.8240868 L0.0897006858,11.606649 L0.109944519,11.3987782 L0.134869678,11.1908471 L0.149337056,11.0838504 C0.360054913,9.5767659 0.862495434,8.81434962 1.8397474,8.7613025 C2.14463029,8.74475287 2.40346239,8.51728456 2.47712461,8.20115902 C2.54614851,7.90493907 2.61853206,7.60790308 2.69466615,7.30919968 L2.77560167,6.99642302 L2.9634212,5.96672713 L3.6275184,1.48716553 L3.65705302,1.47025551 C3.8061097,1.38583972 4.03411,1.29111752 4.32857858,1.19404599 C4.5672333,1.1153735 4.84321644,1.03709685 5.15147464,0.960450207 L5.5365531,0.869335621 C5.93647674,0.779161409 6.37996572,0.692045278 6.8582878,0.610119857 C9.07125065,0.231090909 11.7851655,0 14.2796393,0 Z" id="Combined-Shape"></path>
                <path d="M25.6907307,5.55500226 L26.4116667,10.3909874 C26.4116667,11.9542312 23.5404419,12.3954631 20.2410032,12.5138959 C18.5050102,12.5762091 16.4648476,12.5491613 14.281017,12.5491613 C7.94658524,12.5491613 2.29666667,12.7767287 2.29666667,10.3909874 L3.05136585,5.55500226" id="Stroke-459"></path>
                <path d="M1.7225,18.8876415 L6.98569444,18.8876415 C7.56756983,18.8876415 8.03833333,18.5093505 8.03833333,18.0417734 C8.03833333,16.1716532 6.1550454,15.5041694 3.82777778,15.5041694 L1.7225,15.4978723" id="Stroke-460"></path>
                <path d="M26.9858333,18.8876415 L21.7226389,18.8876415 C21.1407635,18.8876415 20.67,18.5086464 20.67,18.0401992 C20.67,16.1665985 22.5532879,15.4978723 24.8805556,15.4978723 L26.9858333,15.4978723" id="Stroke-461"></path>
                <path d="M4.99083333,23.0914441 L4.41666667,23.0914441" id="Stroke-457-Copy-6"></path>
            </g>
            <path d="M36.4375,1.65957447 C36.4375,3.10433696 34.5292009,3.5121271 31.6681316,3.62158367 C30.1627857,3.67917402 28.3936828,3.65417619 26.5,3.65417619 C21.0071723,3.65417619 16.5625,3.86449586 16.5625,1.65957447" id="Stroke-459-Copy-2"></path>
        </g>
    </g>
</svg>
