<?xml version="1.0" encoding="UTF-8"?>
<svg width="64px" height="64px" viewBox="0 0 64 64" version="1.1" xmlns="http://www.w3.org/2000/svg" xmlns:xlink="http://www.w3.org/1999/xlink">
    <title>Icons / Vehicle / Van</title>
    <g id="Icons-/-Vehicle-/-Van" stroke="none" stroke-width="1" fill="none" fill-rule="evenodd" stroke-linecap="round" stroke-linejoin="round">
        <g id="Group-62-Copy" transform="translate(7.000000, 7.000000)" stroke="#50505A" stroke-width="2.475">
            <path d="M33,43 C33,36.9200556 30.9553016,32 28.4285714,32 L21.5714286,32 C19.0446984,32 17,36.9200556 17,43" id="Stroke-457"></path>
            <path d="M31,37.5 L19,37.5" id="Stroke-457-Copy"></path>
            <path d="M43,40.5 L42,40.5" id="Stroke-457-Copy-5"></path>
            <path d="M24.870199,0 L25.8806127,0.00441911867 L26.6566057,0.0178275406 L27.8300754,0.0538736903 L28.6158774,0.0879092868 L29.7949606,0.15291133 L30.5784385,0.20492761 L31.7449357,0.29491581 L32.8951453,0.39799023 L33.6496676,0.473270901 L34.7581717,0.594979899 L35.4788237,0.681360376 L36.8673503,0.864794608 L37.854921,1.01004211 L38.7890769,1.16027757 L39.3789371,1.26249989 L40.2095084,1.41787282 L40.7242456,1.52219689 L41.4330327,1.67873755 L41.8605139,1.78251686 L42.2496953,1.88533725 C42.3112594,1.90237055 42.3711468,1.91934625 42.429317,1.93625553 L42.757409,2.03684359 L43.042348,2.13541413 C43.0861339,2.15165091 43.1280409,2.16778597 43.1680285,2.18381051 L43.3845981,2.27856084 C43.4810432,2.32520226 43.5594859,2.37069014 43.6188343,2.41478629 L43.664812,2.45279842 L44.8301307,10.2364817 L45.1441166,11.9643203 L45.1671592,12.067514 C45.3536503,12.7704802 45.5259602,13.4609993 45.6845783,14.1388896 C45.8123197,14.6848212 46.2635562,15.0778904 46.7952424,15.1063817 C48.4977083,15.1976113 49.3729027,16.5120068 49.739949,19.1104651 L49.7879603,19.4752191 L49.8271232,19.8315692 L49.8588273,20.1961141 L49.8844622,20.5854529 L49.9145745,21.2522594 L49.9388474,22.0682207 L49.9657678,23.0525483 L49.9838822,23.4003676 L50,23.5981744 L49.9899889,23.6452756 C49.9783202,23.6842208 49.9552911,23.7458676 49.9147547,23.8284594 C49.7814722,24.1000183 49.5328375,24.4310219 49.1852081,24.8059583 L49.007752,24.9911528 L48.3663102,25.6090189 L48.1153487,25.8594994 L47.877301,26.1059533 L47.6756211,26.3282577 C47.5877821,26.4300187 47.5223763,26.5151774 47.4925967,26.5724149 C47.4571305,26.6405819 47.4276437,26.712034 47.404505,26.7858776 L47.3940276,26.8193145 C47.3535263,26.9485679 47.3328835,27.0838392 47.3328835,27.2199891 L47.3328835,49.6490263 C47.3328835,49.8265195 47.1974901,49.9799816 47.0147277,49.9971194 L46.92603,50 L40.4769386,49.9987581 C40.2769928,49.9987581 40.1233484,49.838799 40.1233484,49.6490263 L40.1233484,44.7745784 C40.1233484,44.0703688 39.5829186,43.4994941 38.9162647,43.4994941 L11.0837921,43.4994941 C10.4171382,43.4994941 9.87670835,44.0703688 9.87670835,44.7745784 L9.87670835,49.6490263 C9.87670835,49.8265195 9.74131495,49.9799816 9.55855258,49.9971194 L9.46985486,50 L3.0207635,49.9987581 C2.82081769,49.9987581 2.6671733,49.838799 2.6671733,49.6490263 L2.6671733,27.2199891 C2.6671733,26.8492746 2.56226198,26.6250534 2.39618802,26.3908922 C2.33777559,26.3085317 2.27551593,26.2353909 2.20178614,26.1570051 L2.01603636,25.9706874 L1.42242365,25.4144577 C1.25377546,25.2546372 1.10723379,25.1109182 0.969845918,24.9692899 C0.540611835,24.5268075 0.23762499,24.1388124 0.0853021275,23.8284594 C0.0582778143,23.7733982 0.0390345464,23.7276459 0.025751038,23.6917229 L0.00195850534,23.6139626 C0,23.6060907 0,23.6008063 0,23.5981744 L0.0161762005,23.4003448 L0.0342915231,23.0524805 L0.0769723909,21.5046866 L0.0946355378,21.0159347 L0.127733666,20.3863566 L0.15622761,20.0114637 L0.191485375,19.6530659 L0.234896392,19.294564 L0.260093567,19.1100868 C0.627091285,16.5116653 1.50216912,15.1971545 3.20420447,15.105694 C3.73520515,15.0771601 4.18600127,14.6849734 4.3142954,14.1399293 C4.43451119,13.6292053 4.56057834,13.1170743 4.69317762,12.6020684 L4.83413934,12.0627983 L5.16125608,10.2874606 L6.317884,2.5640785 L6.36932311,2.53492329 C6.62892836,2.38937883 7.02602613,2.22606469 7.53888868,2.05869999 C7.95454275,1.92305776 8.43521006,1.78809802 8.97208936,1.65594863 L9.64276301,1.49885452 C10.3392919,1.34338174 11.1116965,1.19318151 11.9447683,1.05193079 C15.7989852,0.398432602 20.5256874,0 24.870199,0 Z" id="Combined-Shape"></path>
            <path d="M45.0869565,12 L46,20.2902603 C46,22.9701067 40.9993183,23.7265043 35.2528358,23.929532 C32.2293355,24.0363546 28.676077,23.9899869 24.8725986,23.9899869 C13.8402065,23.9899869 4,24.3801025 4,20.2902603 L4.91304348,12" id="Stroke-459"></path>
            <path d="M43,3 C43,5.16714374 39.5434582,5.77882894 34.361144,5.9430138 C31.6344798,6.02939933 28.430067,5.99190258 25,5.99190258 C15.0507273,5.99190258 7,6.30738208 7,3" id="Stroke-459-Copy"></path>
            <path d="M3,35.1702128 L12.1666667,35.1702128 C13.1800926,35.1702128 14,34.457886 14,33.5774324 C14,30.0559721 10.719963,28.7990914 6.66666667,28.7990914 L4.15601852,28.787234" id="Stroke-460"></path>
            <path d="M47,35.1702128 L37.8333333,35.1702128 C36.8199074,35.1702128 36,34.4565603 36,33.5744681 C36,30.0464539 39.280037,28.787234 43.3333333,28.787234 L45.8507037,28.787234" id="Stroke-461"></path>
            <path d="M8,40.5 L7,40.5" id="Stroke-457-Copy-6"></path>
        </g>
    </g>
</svg>
