<?xml version="1.0" encoding="UTF-8"?>
<svg width="64px" height="64px" viewBox="0 0 64 64" version="1.1" xmlns="http://www.w3.org/2000/svg" xmlns:xlink="http://www.w3.org/1999/xlink">
    <title>Icons / Vehicle / Wet Tyres</title>
    <defs>
        <filter color-interpolation-filters="auto" id="filter-1">
            <feColorMatrix in="SourceGraphic" type="matrix" values="0 0 0 0 0.156863 0 0 0 0 0.203922 0 0 0 0 0.325490 0 0 0 1.000000 0"></feColorMatrix>
        </filter>
    </defs>
    <g id="Icons-/-Vehicle-/-Wet-Tyres" stroke="none" stroke-width="1" fill="none" fill-rule="evenodd" stroke-linecap="round" stroke-linejoin="round">
        <g filter="url(#filter-1)" id="Group-39">
            <g transform="translate(8.000000, 8.000000)">
                <path d="M48.5793004,24.2961511 C48.5793004,37.7144654 37.7043742,48.5923022 24.2896502,48.5923022 C10.8749262,48.5923022 1.42108547e-14,37.7144654 1.42108547e-14,24.2961511 C1.42108547e-14,10.8778368 10.8749262,0 24.2896502,0" id="Stroke-238" stroke="#50505A" stroke-width="2.5"></path>
                <path d="M37.2441303,24.2961511 C37.2441303,31.4527174 31.4443016,37.2540984 24.2896502,37.2540984 C17.1349988,37.2540984 11.3351701,31.4527174 11.3351701,24.2961511 C11.3351701,17.1395848 17.1349988,11.3382038 24.2896502,11.3382038" id="Stroke-239" stroke="#50505A" stroke-width="2.5"></path>
                <line x1="24.2896502" y1="0" x2="24.2896502" y2="3.23948681" id="Stroke-240" stroke="#50505A" stroke-width="2.5"></line>
                <line x1="24.2896502" y1="45.3528154" x2="24.2896502" y2="48.5923022" id="Stroke-241" stroke="#50505A" stroke-width="2.5"></line>
                <line x1="18.0030209" y1="0.827868852" x2="18.8412838" y2="3.95703314" id="Stroke-242" stroke="#50505A" stroke-width="2.5"></line>
                <line x1="29.7380707" y1="44.6353231" x2="30.5763335" y2="47.7644873" id="Stroke-243" stroke="#50505A" stroke-width="2.5"></line>
                <line x1="12.1448251" y1="3.25503635" x2="13.7641351" y2="6.0606119" id="Stroke-244" stroke="#50505A" stroke-width="2.5"></line>
                <line x1="34.8151653" y1="42.5317623" x2="36.4344753" y2="45.3373378" id="Stroke-245" stroke="#50505A" stroke-width="2.5"></line>
                <line x1="7.11427662" y1="7.11616269" x2="9.40434082" y2="9.40683981" id="Stroke-246" stroke="#50505A" stroke-width="2.5"></line>
                <line x1="39.1749596" y1="39.1854444" x2="41.4650238" y2="41.4761215" id="Stroke-247" stroke="#50505A" stroke-width="2.5"></line>
                <line x1="3.2541834" y1="12.1480756" x2="6.05900827" y2="13.767819" id="Stroke-248" stroke="#50505A" stroke-width="2.5"></line>
                <line x1="42.5203821" y1="34.8244833" x2="45.325207" y2="36.4442267" id="Stroke-249" stroke="#50505A" stroke-width="2.5"></line>
                <line x1="0.827647341" y1="18.0078213" x2="3.95597437" y2="18.8463084" id="Stroke-250" stroke="#50505A" stroke-width="2.5"></line>
                <line x1="44.62338" y1="29.7460298" x2="47.7517071" y2="30.5845169" id="Stroke-251" stroke="#50505A" stroke-width="2.5"></line>
                <line x1="3.23862003" y1="24.2961511" x2="0" y2="24.2961511" id="Stroke-252" stroke="#50505A" stroke-width="2.5"></line>
                <line x1="3.95592039" y1="29.7459938" x2="0.827593364" y2="30.5844809" id="Stroke-253" stroke="#50505A" stroke-width="2.5"></line>
                <line x1="6.0589183" y1="34.8244833" x2="3.25409344" y2="36.4442267" id="Stroke-254" stroke="#50505A" stroke-width="2.5"></line>
                <line x1="9.40434082" y1="39.1854444" x2="7.11427662" y2="41.4761215" id="Stroke-255" stroke="#50505A" stroke-width="2.5"></line>
                <line x1="13.7641351" y1="42.5317623" x2="12.1448251" y2="45.3371579" id="Stroke-256" stroke="#50505A" stroke-width="2.5"></line>
                <line x1="18.8412298" y1="44.6353231" x2="18.002967" y2="47.7644873" id="Stroke-257" stroke="#50505A" stroke-width="2.5"></line>
                <path d="M45.3406804,12.9579473 C47.1292983,12.9579473 48.5793004,11.507557 48.5793004,9.71846044 C48.5793004,7.92936386 47.1292983,6.47897363 45.3406804,6.47897363 C44.4462815,6.47897363 43.6366265,6.84161618 43.0506162,7.42778332 C42.5304578,7.42778332 42.1020604,6.9992712 42.1020604,6.47897363 C42.1020604,2.90078047 39.2020561,0 35.6248203,0 C32.0475846,0 29.1475803,2.90078047 29.1475803,6.47897363 C29.1475803,10.0571668 32.0475846,12.9579473 35.6248203,12.9579473 L45.3406804,12.9579473 Z" id="Stroke-258" stroke="#50505A" stroke-width="2.5"></path>
                <line x1="38.1113248" y1="20.1892377" x2="39.2563569" y2="19.0438991" id="Stroke-259" stroke="#50505A" stroke-width="2.5"></line>
                <line x1="28.3954647" y1="20.1892377" x2="29.5404968" y2="19.0438991" id="Stroke-260" stroke="#50505A" stroke-width="2.5"></line>
                <line x1="34.8727048" y1="16.9497509" x2="36.0177369" y2="15.8044123" id="Stroke-261" stroke="#50505A" stroke-width="2.5"></line>
                <line x1="28.3954647" y1="13.7102641" x2="29.5404968" y2="12.5649255" id="Stroke-262" stroke="#50505A" stroke-width="2.5"></line>
                <line x1="44.5885649" y1="16.9497509" x2="45.733597" y2="15.8044123" id="Stroke-263" stroke="#50505A" stroke-width="2.5"></line>
            </g>
        </g>
    </g>
</svg>
