<?xml version="1.0" encoding="UTF-8"?>
<svg width="64px" height="64px" viewBox="0 0 64 64" version="1.1" xmlns="http://www.w3.org/2000/svg" xmlns:xlink="http://www.w3.org/1999/xlink">
    <title>Icons / Vehicle / Wheels</title>
    <defs>
        <filter color-interpolation-filters="auto" id="filter-1">
            <feColorMatrix in="SourceGraphic" type="matrix" values="0 0 0 0 0.156863 0 0 0 0 0.203922 0 0 0 0 0.325490 0 0 0 1.000000 0"></feColorMatrix>
        </filter>
    </defs>
    <g id="Icons-/-Vehicle-/-Wheels" stroke="none" stroke-width="1" fill="none" fill-rule="evenodd" stroke-linecap="round" stroke-linejoin="round">
        <g filter="url(#filter-1)" id="Group-54">
            <g transform="translate(8.000000, 8.000000)">
                <path d="M48,24 C48,37.2547556 37.2547556,48 24,48 C10.7452444,48 0,37.2547556 0,24 C0,10.7452444 10.7452444,0 24,0 C37.2547556,0 48,10.7452444 48,24 Z" id="Stroke-105" stroke="#50505A" stroke-width="2.475"></path>
                <path d="M40.8,24 C40.8,33.2784 33.2784,40.8 24,40.8 C14.7216,40.8 7.2,33.2784 7.2,24 C7.2,14.7216 14.7216,7.2 24,7.2 C33.2784,7.2 40.8,14.7216 40.8,24 Z" id="Stroke-107" stroke="#50505A" stroke-width="2.475"></path>
                <line x1="23.9839822" y1="24" x2="24.0159822" y2="24" id="Stroke-109" stroke="#50505A" stroke-width="2.475"></line>
                <path d="M17.6990044,39.5776533 L20.7998044,33.3760533 C21.6927822,31.6254756 22.2325156,30.1760533 23.9998044,30.1760533 C25.7670933,30.1760533 26.3070044,31.6254756 27.1998044,33.3760533 L30.3007822,39.5780089" id="Stroke-111" stroke="#50505A" stroke-width="2.475"></path>
                <path d="M37.03168,34.6028267 L32.1411911,29.7859378 C30.7522133,28.3957156 29.54048,27.4344711 30.0866133,25.75376 C30.6327467,24.0728711 32.1779911,24.0074489 34.1187911,23.6991822 L40.7499022,22.7004267" id="Stroke-113" stroke="#50505A" stroke-width="2.475"></path>
                <path d="M38.0903289,14.8488356 L32.2314844,17.8902578 C30.4801956,18.7818133 29.1914844,19.6371022 27.7616178,18.5983467 C26.3319289,17.5594133 26.7472178,16.0696356 27.0537067,14.12848 L28.1203733,7.70945778" id="Stroke-115" stroke="#50505A" stroke-width="2.475"></path>
                <path d="M7.24956444,22.7004267 L13.8808533,23.6991822 C15.8216533,24.0074489 17.3668978,24.0728711 17.9130311,25.75376 C18.4591644,27.4344711 17.2474311,28.3957156 15.8586311,29.7859378 L10.96832,34.6024711" id="Stroke-117" stroke="#50505A" stroke-width="2.475"></path>
                <path d="M19.8792889,7.70963556 L20.9459556,14.12848 C21.2524444,16.0696356 21.6679111,17.5594133 20.2380444,18.5983467 C18.8081778,19.6371022 17.5196444,18.7818133 15.7681778,17.8902578 L9.90897778,14.8486578" id="Stroke-119" stroke="#50505A" stroke-width="2.475"></path>
            </g>
        </g>
    </g>
</svg>
