<svg width="16" height="16" viewBox="0 0 16 16" xmlns="http://www.w3.org/2000/svg"><defs><linearGradient x1="50%" y1="0%" x2="50%" y2="100%" id="a"><stop stop-color="#283453" offset="0%"/><stop stop-color="#192135" offset="100%"/></linearGradient></defs><path d="M11.344.367A1.987 1.987 0 0 0 10.2 0C9.607 0 9.155.275 8.78.746c-.209.263-.39.797-.432 1.575l.012 2.58-.444.272-.442-.273.012-2.579c-.042-.778-.224-1.312-.433-1.575C6.68.276 6.226 0 5.634 0c-.406 0-.791.124-1.145.367C2.31 1.872 1.307 4.56 1.934 7.215a6.287 6.287 0 0 0 2.3 3.537L4.203 16h1.975l.038-6.4a4.24 4.24 0 0 1-2.362-2.866c-.456-1.933.347-3.719 1.734-4.677.024-.015 0 4.061 0 4.061l2.327 1.27 2.328-1.27s-.023-4.076 0-4.06c1.388.957 2.19 2.743 1.735 4.676A4.241 4.241 0 0 1 9.617 9.6L9.654 16h1.976l-.03-5.248A6.286 6.286 0 0 0 13.9 7.215c.627-2.655-.376-5.343-2.555-6.848" fill="url(#a)" fill-rule="evenodd"/></svg>
